<svg id="svg" version="1.1" xmlns="http://www.w3.org/2000/svg" xmlns:xlink="http://www.w3.org/1999/xlink" width="400" height="400" viewBox="0, 0, 400,400"><g id="svgg"><path id="path0" d="M187.568 0.604 C 187.236 0.936,185.802 1.467,184.382 1.785 C 182.962 2.103,180.495 2.722,178.899 3.162 C 177.304 3.602,174.514 4.155,172.699 4.392 C 168.907 4.886,159.293 6.841,154.600 8.073 C 152.840 8.535,149.797 9.248,147.838 9.658 C 143.490 10.569,138.733 12.031,135.000 13.604 C 133.460 14.253,130.040 15.577,127.400 16.547 C 102.883 25.555,73.127 46.177,53.676 67.642 C 32.914 90.554,15.692 121.881,9.603 147.808 C 9.189 149.573,8.657 151.525,8.420 152.147 C 7.782 153.825,4.918 168.196,4.623 171.200 C 4.212 175.392,3.591 179.189,2.793 182.400 C 2.383 184.050,1.841 186.336,1.589 187.480 C 1.336 188.624,0.876 189.771,0.565 190.029 C -0.295 190.743,-0.264 208.483,0.599 209.199 C 1.781 210.180,3.438 217.907,4.589 227.800 C 5.214 233.176,7.507 245.053,8.553 248.333 C 8.880 249.360,9.350 251.280,9.596 252.600 C 10.029 254.921,11.425 259.276,14.277 267.200 C 29.738 310.149,60.219 346.747,99.873 369.974 C 109.450 375.583,125.473 383.376,130.800 385.014 C 133.110 385.724,137.309 387.127,140.130 388.131 C 142.952 389.135,146.282 390.162,147.530 390.414 C 148.779 390.665,151.330 391.297,153.200 391.818 C 158.716 393.353,169.300 395.113,179.600 396.207 C 187.197 397.014,192.462 398.163,193.422 399.224 C 194.364 400.265,205.555 400.418,206.399 399.401 C 207.528 398.040,213.661 396.830,225.571 395.618 C 236.305 394.525,252.313 390.970,261.600 387.616 C 264.130 386.702,267.671 385.515,269.469 384.977 C 275.910 383.050,298.233 371.590,308.514 364.932 C 329.737 351.190,353.549 327.479,365.517 308.171 C 373.803 294.803,382.029 278.429,384.996 269.400 C 385.502 267.860,386.751 264.350,387.773 261.600 C 388.794 258.850,389.995 254.922,390.443 252.870 C 390.890 250.819,391.515 248.408,391.831 247.512 C 392.829 244.685,395.105 231.880,396.205 222.911 C 397.008 216.370,398.170 211.343,399.210 209.916 C 400.260 208.476,400.432 191.431,399.413 189.875 C 398.545 188.552,396.353 178.356,395.613 172.200 C 392.363 145.195,378.200 108.869,362.783 87.997 C 337.866 54.264,306.408 29.265,273.000 16.649 C 270.800 15.818,267.650 14.592,266.000 13.924 C 261.692 12.181,256.295 10.513,252.600 9.783 C 250.840 9.435,248.586 8.891,247.592 8.574 C 246.597 8.256,243.177 7.449,239.992 6.779 C 234.617 5.649,231.440 5.066,224.800 3.991 C 223.370 3.759,221.120 3.228,219.800 2.811 C 218.480 2.393,216.379 1.850,215.131 1.604 C 213.883 1.357,212.646 0.896,212.382 0.578 C 211.651 -0.303,188.450 -0.278,187.568 0.604 M198.000 137.603 C 229.901 139.547,256.264 164.912,253.839 191.331 C 253.360 196.558,251.707 197.870,246.183 197.410 C 243.066 197.150,240.351 197.376,229.326 198.813 C 226.484 199.183,223.401 200.239,216.800 203.105 C 203.105 209.050,194.159 218.204,189.850 230.681 C 186.985 238.975,187.035 238.943,177.789 238.585 L 170.977 238.321 163.589 241.208 C 159.525 242.796,153.320 245.230,149.800 246.618 C 140.405 250.321,138.838 250.630,136.541 249.229 C 133.163 247.170,133.740 244.555,140.016 233.473 C 145.834 223.199,145.786 223.516,142.164 219.513 C 128.128 204.004,126.785 178.869,139.119 162.560 C 147.157 151.931,158.819 143.828,171.655 139.953 C 177.625 138.150,180.457 137.748,190.400 137.290 C 191.170 137.254,194.590 137.395,198.000 137.603 M228.995 212.447 C 230.130 212.762,231.536 213.814,233.873 216.094 C 238.077 220.198,238.588 221.244,238.210 224.964 C 237.678 230.195,237.652 230.086,240.186 233.182 C 245.825 240.076,248.667 241.896,252.755 241.232 C 260.533 239.969,269.663 249.087,267.001 255.459 C 265.454 259.162,259.715 263.200,256.000 263.200 C 246.393 263.200,216.000 232.935,216.000 223.367 C 216.000 216.611,222.952 210.770,228.995 212.447 " stroke="none" fill="#8b64cb" fill-rule="evenodd"></path><path id="path1" d="M182.000 140.801 C 167.156 142.756,155.808 148.666,144.948 160.099 C 129.744 176.104,129.781 202.578,145.028 218.400 C 149.281 222.812,149.184 223.266,140.879 237.800 C 137.459 243.785,136.977 245.573,138.510 246.578 C 139.952 247.523,140.420 247.366,162.478 238.555 C 171.166 235.084,172.529 234.838,177.680 235.808 C 184.078 237.013,184.785 236.624,186.764 230.800 C 194.229 208.835,217.355 194.174,244.275 194.341 C 250.128 194.377,250.521 194.109,250.722 189.943 C 252.185 159.545,219.135 135.911,182.000 140.801 M223.140 216.114 C 216.428 221.233,217.663 226.078,229.028 239.200 C 235.851 247.078,248.542 257.796,253.499 259.867 C 258.710 262.044,266.333 255.342,263.955 250.674 C 263.126 249.047,258.240 244.409,256.882 243.961 C 255.811 243.608,254.990 243.660,252.835 244.219 C 249.354 245.122,248.653 244.914,244.902 241.863 C 237.400 235.763,233.828 230.455,234.986 227.128 C 236.252 223.496,235.935 222.355,232.719 218.970 C 228.289 214.305,226.291 213.710,223.140 216.114 " stroke="none" fill="#faf9fb" fill-rule="evenodd"></path><path id="path2" d="M0.033 85.700 C 0.060 158.562,0.147 171.213,0.612 170.152 C 0.913 169.466,1.349 167.063,1.580 164.811 C 1.811 162.560,2.433 159.251,2.962 157.459 C 3.491 155.667,4.293 152.670,4.744 150.800 C 10.254 127.951,23.126 100.008,35.700 83.600 C 50.816 63.876,57.681 56.615,73.341 43.786 C 88.649 31.246,110.276 18.592,127.000 12.390 C 129.200 11.575,132.800 10.177,135.000 9.285 C 137.200 8.392,140.620 7.307,142.600 6.873 C 146.870 5.937,153.208 4.366,158.200 3.007 C 160.180 2.468,163.510 1.822,165.600 1.573 C 177.979 0.093,174.869 0.033,85.700 0.016 L 0.000 0.000 0.033 85.700 M229.600 0.575 C 230.150 0.874,232.310 1.322,234.400 1.570 C 236.490 1.818,239.190 2.313,240.400 2.669 C 242.548 3.301,246.413 4.246,257.028 6.731 C 259.917 7.407,263.943 8.697,266.028 9.614 C 268.103 10.527,271.262 11.778,273.049 12.394 C 274.836 13.011,280.056 15.283,284.649 17.443 C 334.143 40.728,372.113 82.207,389.697 132.200 C 392.477 140.104,392.999 141.833,396.038 153.200 C 397.880 160.090,398.246 161.873,398.769 166.505 C 399.880 176.335,399.976 169.983,399.988 85.700 L 400.000 0.000 314.300 0.016 C 241.874 0.030,228.755 0.116,229.600 0.575 M0.033 313.900 L 0.000 400.000 86.700 399.988 C 172.636 399.976,179.057 399.877,168.081 398.735 C 164.100 398.321,160.573 397.687,156.000 396.564 C 154.570 396.213,151.510 395.477,149.200 394.929 C 146.890 394.381,141.850 392.849,138.000 391.526 C 134.150 390.202,129.650 388.713,128.000 388.216 C 115.876 384.565,84.885 366.344,71.200 354.821 C 55.981 342.006,35.939 319.619,30.912 309.821 C 30.568 309.149,28.623 305.810,26.590 302.400 C 16.909 286.161,9.746 268.891,4.979 250.294 C 3.583 244.846,2.344 240.232,2.226 240.042 C 2.108 239.851,1.828 237.600,1.603 235.039 C 1.379 232.478,0.941 229.802,0.630 229.091 C 0.141 227.974,0.061 239.376,0.033 313.900 M399.252 229.700 C 399.027 230.415,398.651 232.980,398.418 235.400 C 398.184 237.820,397.639 240.964,397.207 242.387 C 396.774 243.810,396.217 245.970,395.967 247.187 C 394.975 252.032,392.315 260.935,390.020 267.090 C 388.689 270.660,387.600 273.742,387.600 273.939 C 387.600 275.715,377.728 295.350,372.085 304.800 C 355.945 331.826,331.564 355.892,303.400 372.600 C 294.989 377.590,275.806 387.183,272.274 388.166 C 271.133 388.483,268.130 389.491,265.600 390.405 C 258.371 393.017,251.362 395.112,247.600 395.786 C 246.830 395.924,243.950 396.558,241.200 397.195 C 238.450 397.832,234.371 398.526,232.136 398.737 C 220.167 399.865,227.343 399.976,313.300 399.988 L 400.000 400.000 400.000 314.200 C 400.000 267.010,399.924 228.400,399.831 228.400 C 399.738 228.400,399.478 228.985,399.252 229.700 " stroke="none" fill="#040405" fill-rule="evenodd"></path><path id="path3" d="M170.400 0.575 C 169.850 0.874,167.690 1.323,165.600 1.573 C 163.510 1.822,160.180 2.468,158.200 3.007 C 153.208 4.366,146.870 5.937,142.600 6.873 C 140.620 7.307,137.200 8.392,135.000 9.285 C 132.800 10.177,129.200 11.575,127.000 12.390 C 110.276 18.592,88.649 31.246,73.341 43.786 C 57.681 56.615,50.816 63.876,35.700 83.600 C 23.126 100.008,10.254 127.951,4.744 150.800 C 4.293 152.670,3.491 155.667,2.962 157.459 C 2.433 159.251,1.811 162.554,1.581 164.798 C 1.351 167.042,0.890 169.558,0.557 170.390 C 0.208 171.262,0.010 172.727,0.088 173.851 L 0.225 175.800 0.923 174.286 C 1.308 173.454,1.976 170.465,2.408 167.644 C 3.669 159.418,7.384 144.731,10.210 136.800 C 11.033 134.490,12.225 131.070,12.860 129.200 C 14.635 123.966,21.026 109.701,23.741 104.910 C 41.999 72.697,65.408 48.325,96.600 29.054 C 105.417 23.606,119.392 16.604,127.000 13.822 C 129.200 13.018,132.512 11.721,134.359 10.941 C 138.521 9.184,159.463 3.887,168.970 2.186 C 172.163 1.615,174.800 0.712,174.800 0.190 C 174.800 -0.234,171.330 0.070,170.400 0.575 M225.200 0.190 C 225.200 0.752,228.022 1.666,231.933 2.371 C 236.454 3.184,244.014 4.884,250.800 6.611 C 252.890 7.143,256.220 7.966,258.200 8.440 C 260.180 8.914,263.600 10.065,265.800 10.998 C 268.000 11.931,270.520 12.922,271.400 13.201 C 283.239 16.952,304.919 29.007,319.700 40.058 C 350.147 62.821,375.826 96.535,386.993 128.407 C 391.663 141.736,391.643 141.670,395.014 154.744 C 395.998 158.563,397.177 164.143,397.634 167.144 C 398.090 170.145,398.794 173.320,399.198 174.200 L 399.933 175.800 399.960 173.800 C 399.976 172.700,399.726 171.048,399.406 170.128 C 399.086 169.209,398.713 166.959,398.577 165.128 C 398.442 163.298,398.052 160.810,397.711 159.600 C 397.371 158.390,396.508 155.150,395.794 152.400 C 393.340 142.949,392.504 140.181,389.697 132.200 C 376.637 95.068,352.936 63.248,319.994 38.618 C 305.805 28.009,285.601 16.723,273.049 12.394 C 271.262 11.778,268.103 10.527,266.028 9.614 C 263.943 8.697,259.917 7.407,257.028 6.731 C 246.413 4.246,242.548 3.301,240.400 2.669 C 239.190 2.313,236.490 1.818,234.400 1.569 C 232.310 1.320,230.114 0.866,229.520 0.558 C 228.521 0.042,225.200 -0.242,225.200 0.190 M0.000 225.462 C 0.000 226.584,0.268 228.145,0.597 228.930 C 0.925 229.715,1.377 232.459,1.602 235.026 C 1.827 237.594,2.108 239.851,2.226 240.042 C 2.344 240.232,3.583 244.846,4.979 250.294 C 9.746 268.891,16.909 286.161,26.590 302.400 C 28.623 305.810,30.568 309.149,30.912 309.821 C 35.939 319.619,55.981 342.006,71.200 354.821 C 84.439 365.968,117.713 385.607,127.545 388.077 C 128.565 388.333,132.092 389.504,135.383 390.680 C 141.552 392.882,149.591 395.208,153.800 396.009 C 155.120 396.259,157.336 396.808,158.725 397.227 C 160.114 397.646,163.354 398.192,165.925 398.439 C 168.496 398.686,171.320 399.136,172.200 399.438 C 174.051 400.075,178.172 400.201,177.807 399.611 C 177.436 399.011,174.983 398.460,168.936 397.619 C 156.259 395.856,135.098 390.058,124.600 385.472 C 70.017 361.630,30.935 321.014,11.947 268.400 C 10.637 264.770,9.307 261.133,8.993 260.317 C 7.876 257.424,3.154 237.400,2.603 233.221 C 1.590 225.541,-0.000 220.802,0.000 225.462 M399.111 225.231 C 398.746 226.018,398.155 228.808,397.799 231.431 C 395.846 245.809,389.521 267.123,383.088 281.000 C 378.392 291.130,377.881 292.140,374.155 298.653 C 362.462 319.093,350.214 334.110,331.800 350.584 C 316.598 364.185,287.245 381.711,270.000 387.484 C 267.030 388.479,262.899 389.907,260.820 390.658 C 254.182 393.056,239.804 396.418,231.000 397.631 C 227.700 398.086,224.280 398.790,223.400 399.195 L 221.800 399.933 224.000 399.960 C 225.210 399.976,226.944 399.729,227.854 399.412 C 228.764 399.095,231.194 398.715,233.254 398.566 C 235.314 398.418,238.980 397.799,241.400 397.191 C 243.820 396.582,246.520 395.965,247.400 395.818 C 251.047 395.211,258.117 393.108,265.600 390.405 C 268.130 389.491,271.133 388.483,272.274 388.166 C 275.806 387.183,294.989 377.590,303.400 372.600 C 331.564 355.892,355.945 331.826,372.085 304.800 C 377.728 295.350,387.600 275.715,387.600 273.939 C 387.600 273.742,388.689 270.660,390.020 267.090 C 392.315 260.935,394.975 252.032,395.967 247.187 C 396.217 245.970,396.774 243.810,397.207 242.387 C 397.639 240.964,398.180 237.820,398.409 235.400 C 398.639 232.980,399.101 230.247,399.436 229.326 C 399.776 228.393,399.986 226.801,399.911 225.726 L 399.775 223.800 399.111 225.231 " stroke="none" fill="#3c2c56" fill-rule="evenodd"></path><path id="path4" d="M173.800 0.827 C 173.031 1.320,172.835 1.597,173.256 1.598 C 173.616 1.599,174.336 1.246,174.856 0.813 C 176.059 -0.189,175.373 -0.180,173.800 0.827 M224.814 0.557 C 225.136 0.863,225.850 1.237,226.400 1.388 C 227.244 1.619,227.196 1.532,226.090 0.831 C 224.587 -0.123,223.957 -0.258,224.814 0.557 M118.400 17.400 C 117.410 17.930,116.780 18.364,117.000 18.364 C 117.220 18.364,118.210 17.930,119.200 17.400 C 120.190 16.870,120.820 16.436,120.600 16.436 C 120.380 16.436,119.390 16.870,118.400 17.400 M280.400 16.996 C 280.400 17.270,282.849 18.484,283.032 18.301 C 283.119 18.214,282.562 17.844,281.795 17.478 C 281.028 17.112,280.400 16.895,280.400 16.996 M105.100 23.829 C 103.605 24.640,103.696 24.978,105.200 24.200 C 105.860 23.859,106.400 23.494,106.400 23.390 C 106.400 23.132,106.357 23.147,105.100 23.829 M87.800 34.635 L 86.600 35.666 87.900 34.806 C 88.615 34.333,89.200 33.868,89.200 33.773 C 89.200 33.473,89.031 33.578,87.800 34.635 M78.600 41.435 L 77.400 42.466 78.700 41.606 C 79.415 41.133,80.000 40.668,80.000 40.573 C 80.000 40.273,79.831 40.378,78.600 41.435 M72.175 46.500 L 71.000 47.800 72.300 46.625 C 73.015 45.979,73.600 45.394,73.600 45.325 C 73.600 45.016,73.270 45.288,72.175 46.500 M329.800 48.400 C 330.659 49.280,331.452 50.000,331.562 50.000 C 331.672 50.000,331.059 49.280,330.200 48.400 C 329.341 47.520,328.548 46.800,328.438 46.800 C 328.328 46.800,328.941 47.520,329.800 48.400 M68.778 49.500 L 67.400 51.000 68.900 49.622 C 69.725 48.863,70.400 48.188,70.400 48.122 C 70.400 47.816,70.062 48.104,68.778 49.500 M333.400 51.600 C 334.259 52.480,335.052 53.200,335.162 53.200 C 335.272 53.200,334.659 52.480,333.800 51.600 C 332.941 50.720,332.148 50.000,332.038 50.000 C 331.928 50.000,332.541 50.720,333.400 51.600 M65.775 52.100 L 64.600 53.400 65.900 52.225 C 66.615 51.579,67.200 50.994,67.200 50.925 C 67.200 50.616,66.870 50.888,65.775 52.100 M62.975 54.500 L 61.800 55.800 63.100 54.625 C 64.312 53.530,64.584 53.200,64.275 53.200 C 64.206 53.200,63.621 53.785,62.975 54.500 M336.800 54.600 C 337.546 55.370,338.247 56.000,338.357 56.000 C 338.467 56.000,337.946 55.370,337.200 54.600 C 336.454 53.830,335.753 53.200,335.643 53.200 C 335.533 53.200,336.054 53.830,336.800 54.600 M58.189 58.900 L 55.400 61.800 58.300 59.011 C 60.994 56.420,61.383 56.000,61.089 56.000 C 61.028 56.000,59.723 57.305,58.189 58.900 M341.800 59.200 C 343.328 60.740,344.669 62.000,344.779 62.000 C 344.889 62.000,343.728 60.740,342.200 59.200 C 340.672 57.660,339.331 56.400,339.221 56.400 C 339.111 56.400,340.272 57.660,341.800 59.200 M53.978 63.500 L 52.600 65.000 54.100 63.622 C 55.496 62.338,55.784 62.000,55.478 62.000 C 55.412 62.000,54.737 62.675,53.978 63.500 M346.383 64.100 C 347.364 65.145,348.219 66.000,348.283 66.000 C 348.584 66.000,348.266 65.641,346.500 63.983 L 344.600 62.200 346.383 64.100 M50.185 67.700 L 48.200 69.800 50.300 67.815 C 52.251 65.971,52.583 65.600,52.285 65.600 C 52.222 65.600,51.277 66.545,50.185 67.700 M350.200 68.400 C 351.059 69.280,351.852 70.000,351.962 70.000 C 352.072 70.000,351.459 69.280,350.600 68.400 C 349.741 67.520,348.948 66.800,348.838 66.800 C 348.728 66.800,349.341 67.520,350.200 68.400 M376.200 105.200 C 376.541 105.860,376.911 106.400,377.021 106.400 C 377.131 106.400,376.941 105.860,376.600 105.200 C 376.259 104.540,375.889 104.000,375.779 104.000 C 375.669 104.000,375.859 104.540,376.200 105.200 M22.181 107.637 C 21.829 108.318,21.612 108.945,21.699 109.032 C 21.786 109.119,22.156 108.562,22.522 107.795 C 23.344 106.070,23.059 105.938,22.181 107.637 M19.872 112.619 C 18.932 114.589,19.064 114.924,20.047 113.062 C 20.493 112.216,20.787 111.454,20.701 111.367 C 20.614 111.281,20.241 111.844,19.872 112.619 M17.078 118.620 C 15.609 121.614,15.745 121.969,17.246 119.060 C 17.910 117.773,18.386 116.653,18.304 116.571 C 18.223 116.489,17.671 117.411,17.078 118.620 M398.409 173.140 C 398.398 173.799,399.644 176.490,399.859 176.274 C 399.945 176.189,399.655 175.327,399.216 174.360 C 398.777 173.392,398.414 172.843,398.409 173.140 M0.712 174.731 C 0.333 175.516,0.095 176.229,0.182 176.316 C 0.410 176.543,1.673 174.010,1.524 173.626 C 1.456 173.450,1.090 173.947,0.712 174.731 M0.000 223.001 C 0.000 223.112,0.360 223.875,0.800 224.696 C 1.240 225.516,1.600 225.957,1.600 225.674 C 1.600 225.088,0.477 222.800,0.190 222.800 C 0.085 222.800,0.000 222.891,0.000 223.001 M399.089 224.182 C 398.125 226.205,398.224 226.914,399.203 224.994 C 399.645 224.128,399.955 223.265,399.892 223.077 C 399.830 222.890,399.468 223.387,399.089 224.182 M16.436 279.800 C 16.436 280.020,16.870 281.010,17.400 282.000 C 17.930 282.990,18.364 283.620,18.364 283.400 C 18.364 283.180,17.930 282.190,17.400 281.200 C 16.870 280.210,16.436 279.580,16.436 279.800 M19.236 285.800 C 19.236 286.020,19.670 287.010,20.200 288.000 C 20.730 288.990,21.164 289.620,21.164 289.400 C 21.164 289.180,20.730 288.190,20.200 287.200 C 19.670 286.210,19.236 285.580,19.236 285.800 M379.781 287.237 C 379.429 287.918,379.212 288.545,379.299 288.632 C 379.386 288.719,379.756 288.162,380.122 287.395 C 380.944 285.670,380.659 285.538,379.781 287.237 M23.000 293.600 C 23.341 294.260,23.711 294.800,23.821 294.800 C 23.931 294.800,23.741 294.260,23.400 293.600 C 23.059 292.940,22.689 292.400,22.579 292.400 C 22.469 292.400,22.659 292.940,23.000 293.600 M350.589 331.700 L 347.800 334.600 350.700 331.811 C 353.394 329.220,353.783 328.800,353.489 328.800 C 353.428 328.800,352.123 330.105,350.589 331.700 M48.800 331.400 C 49.995 332.610,51.063 333.600,51.173 333.600 C 51.283 333.600,50.395 332.610,49.200 331.400 C 48.005 330.190,46.937 329.200,46.827 329.200 C 46.717 329.200,47.605 330.190,48.800 331.400 M57.000 340.000 C 59.854 342.860,62.278 345.200,62.388 345.200 C 62.498 345.200,60.254 342.860,57.400 340.000 C 54.546 337.140,52.122 334.800,52.012 334.800 C 51.902 334.800,54.146 337.140,57.000 340.000 M344.187 338.500 L 341.800 341.000 344.300 338.613 C 345.675 337.299,346.800 336.174,346.800 336.113 C 346.800 335.817,346.405 336.178,344.187 338.500 M338.181 344.500 L 336.600 346.200 338.300 344.619 C 339.881 343.148,340.184 342.800,339.881 342.800 C 339.816 342.800,339.051 343.565,338.181 344.500 M64.383 346.900 C 65.364 347.945,66.219 348.800,66.283 348.800 C 66.584 348.800,66.266 348.441,64.500 346.783 L 62.600 345.000 64.383 346.900 M334.378 347.900 L 333.000 349.400 334.500 348.022 C 335.325 347.263,336.000 346.588,336.000 346.522 C 336.000 346.216,335.662 346.504,334.378 347.900 M69.000 351.200 C 69.859 352.080,70.652 352.800,70.762 352.800 C 70.872 352.800,70.259 352.080,69.400 351.200 C 68.541 350.320,67.748 349.600,67.638 349.600 C 67.528 349.600,68.141 350.320,69.000 351.200 M330.185 351.700 L 328.200 353.800 330.300 351.815 C 331.455 350.723,332.400 349.778,332.400 349.715 C 332.400 349.417,332.029 349.749,330.185 351.700 M71.200 352.925 C 71.200 352.994,71.785 353.579,72.500 354.225 L 73.800 355.400 72.625 354.100 C 71.530 352.888,71.200 352.616,71.200 352.925 M80.000 359.746 C 80.000 359.856,80.540 360.330,81.200 360.800 C 81.860 361.270,82.400 361.564,82.400 361.454 C 82.400 361.344,81.860 360.870,81.200 360.400 C 80.540 359.930,80.000 359.636,80.000 359.746 M104.800 375.787 C 104.800 375.897,105.700 376.443,106.800 377.000 C 107.900 377.557,108.800 377.923,108.800 377.813 C 108.800 377.703,107.900 377.157,106.800 376.600 C 105.700 376.043,104.800 375.677,104.800 375.787 M293.100 376.626 C 292.055 377.170,291.200 377.705,291.200 377.814 C 291.200 377.924,292.100 377.557,293.200 377.000 C 294.300 376.443,295.200 375.900,295.200 375.793 C 295.200 375.529,295.236 375.514,293.100 376.626 M276.000 385.000 C 275.010 385.530,274.380 385.964,274.600 385.964 C 274.820 385.964,275.810 385.530,276.800 385.000 C 277.790 384.470,278.420 384.036,278.200 384.036 C 277.980 384.036,276.990 384.470,276.000 385.000 M222.200 399.178 C 221.320 399.595,220.805 399.950,221.056 399.968 C 221.307 399.985,222.297 399.644,223.256 399.209 C 224.215 398.774,224.730 398.418,224.400 398.419 C 224.070 398.420,223.080 398.762,222.200 399.178 M177.424 399.387 C 177.851 399.710,178.470 399.974,178.800 399.973 C 179.148 399.972,178.980 399.732,178.400 399.400 C 177.085 398.648,176.436 398.640,177.424 399.387 " stroke="none" fill="#442e5c" fill-rule="evenodd"></path><path id="path5" d="M174.913 0.767 C 174.339 1.246,172.016 1.885,168.313 2.581 C 156.399 4.823,138.642 9.338,134.376 11.211 C 132.890 11.863,130.083 12.957,128.137 13.642 C 124.510 14.920,108.826 22.068,105.600 23.914 C 93.699 30.723,77.930 41.598,71.000 47.777 C 69.240 49.347,65.865 52.301,63.500 54.343 C 44.781 70.507,21.357 104.881,13.852 127.203 C 13.297 128.851,11.926 132.720,10.805 135.800 C 8.301 142.676,3.846 159.966,2.766 167.000 C 1.828 173.103,1.429 174.743,0.621 175.812 C 0.293 176.246,0.025 177.050,0.025 177.600 C 0.025 181.416,2.083 174.942,3.203 167.600 C 4.231 160.869,8.184 144.981,10.420 138.600 C 11.345 135.960,12.689 132.090,13.408 130.000 C 18.056 116.469,29.186 95.412,37.162 85.056 C 45.427 74.326,47.489 71.770,51.436 67.365 C 68.385 48.447,91.951 30.774,114.200 20.296 C 121.814 16.710,127.718 14.196,130.400 13.397 C 130.950 13.233,133.020 12.418,135.000 11.585 C 138.809 9.983,139.588 9.757,150.000 7.228 C 158.781 5.096,164.632 3.797,169.000 3.013 C 173.364 2.229,176.174 1.354,176.818 0.578 C 177.553 -0.307,176.018 -0.155,174.913 0.767 M223.182 0.578 C 223.826 1.354,226.636 2.229,231.000 3.013 C 242.852 5.142,260.654 9.638,265.756 11.791 C 267.540 12.544,270.800 13.815,273.000 14.617 C 281.410 17.681,294.603 24.330,304.344 30.414 C 348.582 58.041,379.070 98.784,392.635 148.400 C 394.203 154.135,396.270 163.123,396.590 165.600 C 397.232 170.565,398.506 176.274,399.223 177.400 L 399.987 178.600 399.993 177.589 C 399.997 177.033,399.731 176.194,399.402 175.724 C 398.724 174.756,397.875 171.001,397.203 166.000 C 396.786 162.900,394.726 154.208,392.226 145.000 C 390.956 140.321,386.069 126.299,384.280 122.200 C 381.943 116.843,377.574 107.473,376.820 106.200 C 376.429 105.540,374.033 101.490,371.495 97.200 C 353.867 67.406,319.395 35.389,290.391 21.871 C 288.306 20.899,284.510 19.108,281.956 17.890 C 279.402 16.672,275.532 15.020,273.356 14.218 C 271.180 13.417,267.771 12.071,265.780 11.227 C 261.416 9.378,241.957 4.440,231.800 2.605 C 227.248 1.782,225.309 1.213,224.746 0.535 C 224.502 0.241,223.942 0.000,223.502 0.000 C 222.850 0.000,222.791 0.107,223.182 0.578 M399.092 221.678 C 398.702 222.491,398.015 225.461,397.565 228.278 C 396.477 235.086,394.086 246.809,393.174 249.800 C 392.772 251.120,392.145 253.519,391.782 255.132 C 391.419 256.745,390.316 260.255,389.332 262.932 C 388.348 265.609,386.921 269.562,386.161 271.715 C 382.825 281.162,373.942 298.475,366.202 310.616 C 352.832 331.591,326.589 356.593,303.980 369.897 C 292.087 376.896,275.868 384.962,270.400 386.598 C 268.750 387.091,265.060 388.332,262.200 389.356 C 253.864 392.339,241.982 395.194,231.200 396.806 C 223.715 397.925,220.215 398.657,218.877 399.383 L 217.800 399.968 219.049 399.984 C 219.736 399.993,221.092 399.649,222.063 399.219 C 223.033 398.790,226.521 398.053,229.814 397.581 C 240.839 396.001,253.724 392.924,262.611 389.749 C 265.465 388.729,269.150 387.486,270.800 386.986 C 276.107 385.378,291.540 377.769,302.417 371.398 C 327.463 356.727,354.922 330.482,367.968 308.745 C 377.122 293.491,383.597 280.664,386.820 271.400 C 387.432 269.640,388.667 266.220,389.564 263.800 C 392.347 256.295,396.097 241.028,397.615 231.024 C 398.106 227.787,398.794 224.796,399.254 223.893 C 399.690 223.039,399.992 221.858,399.924 221.270 C 399.802 220.220,399.787 220.227,399.092 221.678 M0.000 221.565 C 0.000 222.040,0.293 222.875,0.650 223.420 C 1.411 224.582,2.186 228.047,2.801 233.040 C 3.944 242.307,8.395 258.341,14.005 273.400 C 15.130 276.420,21.708 290.664,23.333 293.600 C 42.298 327.861,65.547 352.233,97.346 371.188 C 107.507 377.244,123.789 385.372,128.600 386.789 C 129.920 387.177,133.684 388.441,136.964 389.596 C 146.381 392.913,161.516 396.576,169.200 397.399 C 172.899 397.795,177.036 398.695,178.396 399.398 C 179.036 399.729,180.154 399.993,180.880 399.984 L 182.200 399.968 181.112 399.377 C 179.921 398.731,173.994 397.448,170.200 397.015 C 161.759 396.052,145.816 392.201,136.400 388.851 C 132.770 387.560,129.172 386.366,128.405 386.199 C 127.089 385.912,111.321 378.522,107.000 376.167 C 70.154 356.087,45.623 331.868,24.621 294.835 C 14.809 277.534,6.537 253.067,3.039 231.000 C 1.881 223.696,1.430 221.889,0.593 221.194 C 0.100 220.785,0.000 220.848,0.000 221.565 " stroke="none" fill="#4c3467" fill-rule="evenodd"></path><path id="path6" d="M176.818 0.578 C 176.174 1.354,173.364 2.229,169.000 3.013 C 164.632 3.797,158.781 5.096,150.000 7.228 C 139.588 9.757,138.809 9.983,135.000 11.585 C 133.020 12.418,130.950 13.233,130.400 13.397 C 127.718 14.196,121.814 16.710,114.200 20.296 C 91.951 30.774,68.385 48.447,51.436 67.365 C 47.489 71.770,45.427 74.326,37.162 85.056 C 29.186 95.412,18.056 116.469,13.408 130.000 C 12.689 132.090,11.345 135.960,10.420 138.600 C 8.192 144.959,4.235 160.848,3.198 167.600 C 2.208 174.043,1.786 175.769,0.768 177.523 C -0.154 179.111,-0.318 181.562,0.545 180.845 C 1.454 180.091,2.739 175.307,3.566 169.600 C 4.877 160.555,8.536 145.587,11.389 137.600 C 12.214 135.290,13.604 131.330,14.477 128.800 C 30.965 81.033,78.868 32.938,127.800 15.024 C 130.000 14.219,133.283 12.934,135.095 12.169 C 139.841 10.165,158.156 5.674,172.315 3.041 C 175.865 2.380,179.200 1.112,179.200 0.422 C 179.200 -0.207,177.371 -0.088,176.818 0.578 M221.408 0.809 C 222.295 1.789,224.767 2.536,230.600 3.586 C 234.548 4.297,239.308 5.348,253.400 8.623 C 257.722 9.627,263.450 11.478,267.400 13.147 C 268.500 13.612,271.200 14.648,273.400 15.449 C 313.029 29.889,353.101 65.560,375.570 106.400 C 377.025 109.046,378.770 112.710,382.340 120.616 C 387.917 132.970,394.077 153.881,396.239 167.800 C 397.351 174.955,398.478 179.450,399.391 180.362 C 400.330 181.302,400.206 179.030,399.232 177.447 C 398.509 176.274,397.227 170.525,396.590 165.600 C 392.939 137.385,375.908 100.514,354.093 73.600 C 341.962 58.635,322.554 41.787,304.344 30.414 C 294.603 24.330,281.410 17.681,273.000 14.617 C 270.800 13.815,267.540 12.544,265.756 11.791 C 260.654 9.638,242.852 5.142,231.000 3.013 C 226.636 2.229,223.826 1.354,223.182 0.578 C 222.918 0.260,222.246 0.000,221.689 0.000 C 220.697 0.000,220.692 0.017,221.408 0.809 M399.300 217.873 C 398.562 219.163,397.292 224.781,396.580 229.903 C 395.279 239.271,391.649 254.622,388.990 262.000 C 388.158 264.310,386.802 268.090,385.977 270.400 C 376.599 296.670,356.135 327.024,335.400 345.420 C 333.200 347.372,330.227 350.056,328.794 351.385 C 317.679 361.685,282.543 382.524,270.463 385.979 C 268.998 386.398,265.460 387.572,262.600 388.588 C 253.552 391.801,239.821 395.008,228.400 396.576 C 218.169 397.980,210.733 399.948,215.520 399.984 C 216.686 399.993,218.164 399.729,218.804 399.398 C 220.252 398.649,223.721 397.924,231.200 396.806 C 241.982 395.194,253.864 392.339,262.200 389.356 C 265.060 388.332,268.750 387.091,270.400 386.598 C 275.868 384.962,292.087 376.896,303.980 369.897 C 326.589 356.593,352.832 331.591,366.202 310.616 C 373.942 298.475,382.825 281.162,386.161 271.715 C 386.921 269.562,388.348 265.609,389.332 262.932 C 390.316 260.255,391.419 256.745,391.782 255.132 C 392.145 253.519,392.772 251.120,393.174 249.800 C 394.087 246.805,396.478 235.084,397.569 228.252 C 398.030 225.368,398.759 222.368,399.227 221.431 C 400.179 219.526,400.247 216.220,399.300 217.873 M0.000 219.351 C 0.000 220.094,0.267 220.924,0.593 221.194 C 1.430 221.889,1.881 223.696,3.039 231.000 C 6.537 253.067,14.809 277.534,24.621 294.835 C 45.623 331.868,70.154 356.087,107.000 376.167 C 111.321 378.522,127.089 385.912,128.405 386.199 C 129.172 386.366,132.770 387.560,136.400 388.851 C 145.816 392.201,161.759 396.052,170.200 397.015 C 173.987 397.447,179.896 398.725,181.184 399.392 C 181.831 399.726,183.314 399.993,184.480 399.984 C 189.406 399.947,180.750 397.722,170.600 396.417 C 160.776 395.154,147.027 391.910,137.655 388.645 C 134.215 387.446,130.370 386.177,129.112 385.825 C 126.388 385.062,106.607 375.508,102.605 373.021 C 101.062 372.063,97.739 370.077,95.221 368.607 C 90.355 365.767,76.210 355.681,72.200 352.192 C 34.107 319.047,8.934 274.284,3.598 230.200 C 2.704 222.823,-0.000 214.667,0.000 219.351 " stroke="none" fill="#5d4482" fill-rule="evenodd"></path><path id="path7" d="M186.400 137.483 C 167.757 138.403,150.443 147.586,139.119 162.560 C 126.785 178.869,128.128 204.004,142.164 219.513 C 145.786 223.516,145.834 223.199,140.016 233.473 C 133.740 244.555,133.163 247.170,136.541 249.229 C 138.838 250.630,140.405 250.321,149.800 246.618 C 153.320 245.230,159.525 242.796,163.589 241.208 L 170.977 238.321 177.789 238.585 C 187.035 238.943,186.985 238.975,189.850 230.681 C 194.159 218.204,203.105 209.050,216.800 203.105 C 223.401 200.239,226.484 199.183,229.326 198.813 C 240.351 197.376,243.066 197.150,246.183 197.410 C 254.089 198.069,255.865 192.429,252.391 177.694 C 246.895 154.377,218.678 135.986,190.400 137.290 C 189.630 137.325,187.830 137.412,186.400 137.483 M198.200 140.432 C 229.430 143.512,251.936 164.728,250.722 189.943 C 250.521 194.109,250.128 194.377,244.275 194.341 C 217.355 194.174,194.229 208.835,186.764 230.800 C 184.785 236.624,184.078 237.013,177.680 235.808 C 172.529 234.838,171.166 235.084,162.478 238.555 C 140.420 247.366,139.952 247.523,138.510 246.578 C 136.977 245.573,137.459 243.785,140.879 237.800 C 149.184 223.266,149.281 222.812,145.028 218.400 C 129.781 202.578,129.744 176.104,144.948 160.099 C 159.283 145.008,177.265 138.367,198.200 140.432 M223.743 212.436 C 220.172 213.471,216.000 219.361,216.000 223.367 C 216.000 232.935,246.393 263.200,256.000 263.200 C 258.696 263.200,261.204 261.989,263.819 259.426 C 269.178 254.171,268.937 250.896,262.758 244.991 C 258.555 240.974,257.283 240.496,252.755 241.232 C 248.667 241.896,245.825 240.076,240.186 233.182 C 237.652 230.086,237.678 230.195,238.210 224.964 C 238.907 218.112,230.194 210.567,223.743 212.436 M228.739 215.369 C 233.587 217.875,236.379 223.131,234.986 227.128 C 233.828 230.455,237.400 235.763,244.902 241.863 C 248.653 244.914,249.354 245.122,252.835 244.219 C 254.990 243.660,255.811 243.608,256.882 243.961 C 258.240 244.409,263.126 249.047,263.955 250.674 C 266.333 255.342,258.710 262.044,253.499 259.867 C 245.107 256.361,224.695 236.402,219.912 227.028 C 216.882 221.089,223.330 212.572,228.739 215.369 " stroke="none" fill="#c4ace4" fill-rule="evenodd"></path><path id="path8" d="M179.070 0.561 C 178.746 1.407,175.078 2.630,170.600 3.386 C 160.296 5.126,139.729 10.213,135.101 12.166 C 133.285 12.933,130.000 14.219,127.800 15.024 C 78.868 32.938,30.965 81.033,14.477 128.800 C 13.604 131.330,12.214 135.290,11.389 137.600 C 8.536 145.588,4.586 161.869,3.418 170.459 C 2.760 175.293,1.536 179.740,0.563 180.831 C -0.264 181.759,-0.262 190.715,0.565 190.029 C 0.876 189.771,1.336 188.624,1.589 187.480 C 1.841 186.336,2.383 184.050,2.793 182.400 C 3.591 179.189,4.212 175.392,4.623 171.200 C 4.918 168.196,7.782 153.825,8.420 152.147 C 8.657 151.525,9.189 149.573,9.603 147.808 C 15.692 121.881,32.914 90.554,53.676 67.642 C 73.127 46.177,102.883 25.555,127.400 16.547 C 130.040 15.577,133.460 14.253,135.000 13.604 C 138.733 12.031,143.490 10.569,147.838 9.658 C 149.797 9.248,152.840 8.535,154.600 8.073 C 159.293 6.841,168.907 4.886,172.699 4.392 C 174.514 4.155,177.304 3.602,178.899 3.162 C 180.495 2.722,182.962 2.103,184.382 1.785 C 189.137 0.721,188.873 0.000,183.729 0.000 C 180.286 0.000,179.237 0.126,179.070 0.561 M212.382 0.578 C 212.646 0.896,213.883 1.357,215.131 1.604 C 216.379 1.850,218.480 2.393,219.800 2.811 C 221.120 3.228,223.370 3.759,224.800 3.991 C 231.440 5.066,234.617 5.649,239.992 6.779 C 243.177 7.449,246.597 8.256,247.592 8.574 C 248.586 8.891,250.840 9.435,252.600 9.783 C 256.295 10.513,261.692 12.181,266.000 13.924 C 267.650 14.592,270.800 15.818,273.000 16.649 C 306.408 29.265,337.866 54.264,362.783 87.997 C 378.200 108.869,392.363 145.195,395.613 172.200 C 396.298 177.895,398.488 188.307,399.299 189.724 C 399.725 190.469,399.817 189.889,399.913 185.846 C 400.005 181.969,399.910 180.964,399.397 180.396 C 398.454 179.354,397.350 174.953,396.239 167.800 C 394.077 153.881,387.917 132.970,382.340 120.616 C 378.770 112.710,377.025 109.046,375.570 106.400 C 364.176 85.690,349.875 67.695,332.718 52.479 C 314.980 36.747,291.326 21.981,273.400 15.449 C 271.200 14.648,268.500 13.612,267.400 13.147 C 263.450 11.478,257.722 9.627,253.400 8.623 C 239.308 5.348,234.548 4.297,230.600 3.586 C 224.767 2.536,222.295 1.789,221.408 0.809 C 220.455 -0.244,211.509 -0.473,212.382 0.578 M-0.000 213.128 C -0.000 216.833,0.130 217.775,0.799 218.908 C 1.856 220.700,3.010 225.313,3.573 230.002 C 8.885 274.198,34.042 318.991,72.200 352.192 C 76.210 355.681,90.355 365.767,95.221 368.607 C 97.739 370.077,101.062 372.063,102.605 373.021 C 106.607 375.508,126.388 385.062,129.112 385.825 C 130.370 386.177,134.215 387.446,137.655 388.645 C 147.027 391.910,160.776 395.154,170.600 396.417 C 176.411 397.164,184.307 398.731,185.581 399.390 C 187.553 400.410,194.364 400.265,193.422 399.224 C 192.462 398.163,187.197 397.014,179.600 396.207 C 169.300 395.113,158.716 393.353,153.200 391.818 C 151.330 391.297,148.779 390.665,147.530 390.414 C 146.282 390.162,142.952 389.135,140.130 388.131 C 137.309 387.127,133.110 385.724,130.800 385.014 C 125.473 383.376,109.450 375.583,99.873 369.974 C 60.219 346.747,29.738 310.149,14.277 267.200 C 11.425 259.276,10.029 254.921,9.596 252.600 C 9.350 251.280,8.880 249.360,8.553 248.333 C 7.507 245.053,5.214 233.176,4.589 227.800 C 2.821 212.601,0.000 203.581,-0.000 213.128 M399.117 210.004 C 398.159 211.412,396.968 216.690,396.205 222.911 C 395.105 231.880,392.829 244.685,391.831 247.512 C 391.515 248.408,390.890 250.819,390.443 252.870 C 389.995 254.922,388.794 258.850,387.773 261.600 C 386.751 264.350,385.502 267.860,384.996 269.400 C 382.029 278.429,373.803 294.803,365.517 308.171 C 353.549 327.479,329.737 351.190,308.514 364.932 C 298.233 371.590,275.910 383.050,269.469 384.977 C 267.671 385.515,264.130 386.702,261.600 387.616 C 252.313 390.970,236.305 394.525,225.571 395.618 C 213.661 396.830,207.528 398.040,206.399 399.401 C 205.707 400.235,212.711 400.272,214.320 399.444 C 215.640 398.763,222.206 397.426,228.400 396.576 C 239.821 395.008,253.552 391.801,262.600 388.588 C 265.460 387.572,268.998 386.398,270.463 385.979 C 282.543 382.524,317.679 361.685,328.794 351.385 C 330.227 350.056,333.200 347.372,335.400 345.420 C 356.135 327.024,376.599 296.670,385.977 270.400 C 386.802 268.090,388.158 264.310,388.990 262.000 C 391.649 254.622,395.279 239.271,396.580 229.903 C 397.342 224.419,398.625 218.927,399.431 217.696 C 399.881 217.009,400.001 215.823,399.914 212.892 C 399.802 209.082,399.786 209.021,399.117 210.004 " stroke="none" fill="#644c94" fill-rule="evenodd"></path></g></svg>