<?xml version="1.0" standalone="no"?>
<!DOCTYPE svg PUBLIC "-//W3C//DTD SVG 20010904//EN"
 "http://www.w3.org/TR/2001/REC-SVG-20010904/DTD/svg10.dtd">
<svg version="1.0" xmlns="http://www.w3.org/2000/svg"
 width="250.000000pt" height="148.000000pt" viewBox="0 0 250.000000 148.000000"
 preserveAspectRatio="xMidYMid meet">
<metadata>
Created by potrace 1.10, written by Peter Selinger 2001-2011
</metadata>
<g transform="translate(0.000000,148.000000) scale(0.100000,-0.100000)"
fill="#000000" stroke="none">
<path d="M1169 1433 c-13 -16 -12 -17 4 -4 9 7 17 15 17 17 0 8 -8 3 -21 -13z"/>
<path d="M1197 1412 c-41 -45 -39 -93 7 -130 21 -16 26 -28 26 -65 l0 -45
-132 -4 c-125 -3 -137 -6 -202 -36 -51 -24 -66 -35 -59 -45 13 -16 -60 -90
-75 -75 -12 12 -55 -59 -71 -117 -7 -24 -11 -155 -11 -333 0 -231 -3 -293 -12
-289 -7 2 -12 10 -10 16 1 7 -2 10 -8 6 -8 -5 -7 -11 1 -21 16 -19 18 -19 75
24 28 20 63 46 78 57 69 49 78 58 66 65 -8 5 -7 9 5 13 9 4 14 3 11 -1 -2 -4
70 -6 160 -5 543 9 482 4 554 40 86 41 140 94 181 178 30 61 33 77 33 154 0
103 -27 172 -95 246 -85 92 -175 125 -346 125 l-103 0 0 46 c0 38 5 51 30 74
36 34 39 75 9 114 -25 32 -86 37 -112 8z m58 -10 c-3 -3 -11 0 -18 7 -9 10 -8
11 6 5 10 -3 15 -9 12 -12z m-54 -25 c-13 -12 -20 -15 -15 -7 12 22 28 39 33
34 3 -3 -6 -15 -18 -27z m99 8 c13 -14 21 -25 18 -25 -2 0 -15 11 -28 25 -13
14 -21 25 -18 25 2 0 15 -11 28 -25z m-16 -17 c8 -13 7 -23 -3 -39 -11 -19
-11 -21 4 -16 9 4 14 3 10 -3 -7 -11 -53 -3 -72 13 -7 5 -13 17 -13 26 0 40
52 53 74 19z m-80 -58 c-6 -5 -24 21 -24 34 0 6 6 1 14 -10 8 -10 12 -21 10
-24z m49 -50 c-3 -11 -7 -20 -9 -20 -2 0 -4 9 -4 20 0 11 4 20 9 20 5 0 7 -9
4 -20z m12 -100 c3 -6 -4 -10 -17 -10 -18 0 -20 2 -8 10 19 12 18 12 25 0z
m-118 -16 c-3 -3 -12 -4 -19 -1 -8 3 -5 6 6 6 11 1 17 -2 13 -5z m320 0 c-3
-3 -12 -4 -19 -1 -8 3 -5 6 6 6 11 1 17 -2 13 -5z m70 -10 c-3 -3 -12 -4 -19
-1 -8 3 -5 6 6 6 11 1 17 -2 13 -5z m-612 -14 c-3 -5 -11 -10 -16 -10 -6 0 -7
5 -4 10 3 6 11 10 16 10 6 0 7 -4 4 -10z m651 -24 c47 -22 60 -24 73 -14 14
11 14 11 4 -3 -11 -13 -9 -19 7 -34 11 -10 23 -15 27 -12 4 4 -2 13 -12 21
-15 11 -16 14 -4 21 8 5 11 5 7 0 -5 -5 2 -15 13 -23 15 -11 18 -17 9 -22 -9
-6 -6 -17 13 -42 38 -50 58 -114 58 -188 0 -138 -69 -243 -199 -302 -44 -21
-65 -22 -367 -26 l-320 -4 -52 -39 c-31 -23 -50 -45 -47 -52 3 -8 -2 -20 -11
-27 -18 -15 -21 0 -3 18 19 19 -1 14 -33 -8 -18 -14 -26 -27 -23 -38 5 -14 3
-14 -6 2 -8 12 -9 20 -2 25 7 4 12 102 14 271 3 258 4 266 28 315 13 28 46 71
71 96 38 37 45 49 36 60 -10 11 -9 11 4 1 13 -10 24 -9 54 4 64 27 111 30 362
28 238 -2 244 -3 299 -28z m58 5 c4 -5 -3 -7 -14 -4 -23 6 -26 13 -6 13 8 0
17 -4 20 -9z m-874 -126 c-7 -8 -16 -15 -21 -15 -5 0 -6 7 -3 15 4 8 13 15 21
15 13 0 13 -3 3 -15z m1000 -20 c0 -5 -5 -3 -10 5 -5 8 -10 20 -10 25 0 6 5 3
10 -5 5 -8 10 -19 10 -25z m-1033 -40 c-7 -13 -14 -20 -15 -14 -2 5 2 16 8 24
18 21 20 18 7 -10z m1053 -10 c0 -5 -5 -3 -10 5 -5 8 -10 20 -10 25 0 6 5 3
10 -5 5 -8 10 -19 10 -25z m-1079 -68 c-10 -9 -11 -8 -5 6 3 10 9 15 12 12 3
-3 0 -11 -7 -18z m1096 -19 c-3 -8 -6 -5 -6 6 -1 11 2 17 5 13 3 -3 4 -12 1
-19z m-71 -236 c-17 -16 -18 -16 -5 5 7 12 15 20 18 17 3 -2 -3 -12 -13 -22z
m-26 -25 c0 -2 -10 -12 -22 -23 l-23 -19 19 23 c18 21 26 27 26 19z m-65 -59
c-25 -15 -47 -19 -39 -7 3 5 9 7 14 4 5 -3 11 -1 15 5 3 5 12 10 18 10 7 0 3
-6 -8 -12z m-691 -47 c3 -4 -6 -6 -19 -3 -14 2 -25 6 -25 8 0 8 39 4 44 -5z
m309 2 c-7 -2 -19 -2 -25 0 -7 3 -2 5 12 5 14 0 19 -2 13 -5z m-417 -59 c-11
-8 -25 -14 -30 -13 -6 0 -1 5 12 11 12 6 22 16 22 21 0 6 3 7 7 3 5 -4 -1 -14
-11 -22z"/>
<path d="M853 1025 c0 -7 6 -11 14 -8 7 3 13 6 13 8 0 2 -6 5 -13 8 -8 3 -14
-1 -14 -8z"/>
<path d="M903 989 c-45 -17 -63 -65 -63 -169 0 -113 18 -154 72 -167 18 -4
183 -6 366 -3 l334 5 19 24 c16 20 19 40 19 142 0 110 -2 120 -24 146 l-24 28
-339 2 c-186 0 -348 -3 -360 -8z m81 -20 c-3 -5 0 -9 5 -9 6 0 11 4 11 8 0 5
99 10 220 11 147 1 220 -2 220 -9 0 -5 5 -10 11 -10 5 0 7 5 4 10 -10 17 4 11
25 -10 11 -11 15 -22 10 -25 -6 -4 -10 -1 -10 6 0 8 -5 7 -17 -2 -14 -12 -16
-12 -9 1 4 8 0 6 -8 -4 -9 -11 -16 -23 -16 -28 0 -4 -6 -5 -14 -2 -8 3 -17 0
-22 -7 -5 -8 -3 -10 6 -4 9 5 11 4 6 -4 -4 -6 -15 -10 -24 -9 -12 2 -17 -4
-16 -19 1 -14 -6 -25 -17 -28 -29 -10 -22 -75 8 -75 8 0 12 -4 8 -10 -3 -5 7
-5 25 1 17 6 37 9 44 6 10 -4 13 0 11 13 -2 10 3 24 11 31 11 9 20 5 43 -20
16 -17 26 -31 23 -31 -3 0 -3 -2 0 -5 2 -3 19 0 36 6 33 11 51 44 34 61 -6 6
-8 17 -5 26 5 11 3 13 -8 7 -9 -5 -7 -1 3 11 14 16 15 23 6 32 -9 9 -9 12 0
12 7 0 12 5 12 11 0 8 -6 7 -17 -2 -15 -12 -16 -12 -10 4 3 9 3 17 -2 17 -5 0
-11 -9 -14 -20 -3 -11 -12 -20 -20 -20 -22 0 -40 27 -32 47 5 10 7 24 6 32 -2
10 7 12 36 7 21 -3 44 -7 51 -8 16 -2 47 -58 32 -58 -5 0 -10 -7 -10 -15 0 -8
5 -15 10 -15 7 0 10 -29 9 -80 -2 -44 -6 -75 -10 -69 -4 7 -8 5 -13 -6 -3 -9
-10 -14 -14 -11 -5 3 -9 -1 -9 -9 0 -8 4 -12 9 -9 4 3 8 1 8 -5 0 -5 -10 -13
-22 -17 -31 -10 -177 -11 -171 -2 2 5 -3 8 -11 8 -9 0 -16 -5 -16 -10 0 -7
-13 -9 -32 -6 -18 3 -67 8 -108 11 -57 4 -71 3 -60 -6 12 -9 11 -10 -5 -4 -22
7 -234 7 -246 -1 -4 -2 -19 1 -34 8 -18 8 -22 14 -13 20 10 6 9 8 -3 8 -9 0
-20 7 -23 16 -10 27 -7 132 5 140 8 4 7 9 -2 15 -12 8 -12 10 0 18 9 6 10 11
2 15 -21 13 -11 37 20 50 20 8 27 15 18 18 -8 3 7 5 34 5 26 1 45 -3 41 -8z
m520 -5 c5 -14 4 -15 -9 -4 -17 14 -19 20 -6 20 5 0 12 -7 15 -16z m29 -102
l58 -59 -19 -23 -19 -23 -40 36 c-22 21 -44 37 -47 37 -4 0 -22 -16 -41 -36
-29 -30 -37 -34 -54 -24 -25 13 -27 33 -6 50 9 7 13 23 10 37 -3 21 -2 23 11
12 13 -10 21 -7 47 19 17 18 34 32 37 32 3 0 32 -26 63 -58z m50 5 c-4 -6 -9
-3 -14 9 -5 14 -8 15 -9 4 -2 -8 -2 -19 0 -25 1 -5 -4 -5 -11 2 -18 18 8 48
27 32 8 -6 11 -16 7 -22z"/>
<path d="M945 960 c-3 -5 -2 -10 4 -10 5 0 13 5 16 10 3 6 2 10 -4 10 -5 0
-13 -4 -16 -10z"/>
<path d="M1035 951 c-8 -25 -31 -33 -48 -17 -11 12 -15 11 -25 -4 -8 -13 -8
-20 0 -28 9 -9 3 -20 -20 -42 -37 -35 -41 -36 -37 -12 1 9 0 11 -2 4 -3 -7
-10 -9 -16 -5 -7 3 -3 -4 8 -16 19 -22 19 -23 1 -20 -26 5 -33 -21 -7 -28 25
-6 28 -21 4 -19 -12 1 -17 -7 -17 -24 0 -19 7 -26 32 -34 39 -11 70 7 51 30
-9 11 -8 14 5 14 9 0 19 6 21 13 6 15 54 19 51 3 -2 -6 -1 -8 1 -4 2 4 12 4
20 1 13 -5 12 -2 -3 14 -13 14 -23 17 -31 10 -9 -6 -13 -6 -13 1 0 23 23 23
46 1 24 -22 24 -24 7 -38 -17 -13 -17 -13 2 -6 11 4 31 7 44 6 13 0 31 5 40
13 9 7 22 15 30 18 16 5 24 55 10 63 -5 3 -6 -1 -3 -9 4 -11 0 -16 -11 -16 -9
0 -13 5 -10 10 4 6 3 9 -2 8 -4 -1 -18 4 -30 12 -17 11 -19 18 -12 32 5 10 8
18 7 19 -31 8 -38 6 -27 -7 6 -8 10 -17 7 -20 -3 -2 -13 7 -23 22 -9 15 -13
24 -8 21 5 -3 15 -1 23 4 11 7 6 9 -19 7 -19 -2 -36 2 -38 8 -2 7 6 10 22 9
14 -2 23 1 19 6 -7 12 9 12 24 -1 7 -5 5 -2 -3 7 -12 13 -17 14 -27 5 -14 -14
-32 -16 -23 -2 3 6 2 10 -4 10 -5 0 -12 -9 -16 -19z m-48 -47 c-9 -9 -28 6
-21 18 4 6 10 6 17 -1 6 -6 8 -13 4 -17z m105 -41 c63 -62 69 -77 38 -93 -16
-9 -26 -4 -60 26 l-41 37 -32 -31 c-36 -35 -71 -42 -81 -16 -4 10 13 35 51 75
31 32 59 59 62 59 3 0 31 -26 63 -57z m88 -63 c0 -5 -5 -10 -11 -10 -5 0 -7 5
-4 10 3 6 8 10 11 10 2 0 4 -4 4 -10z m-280 -52 c0 -9 4 -8 10 2 8 12 10 10
11 -10 l1 -25 8 25 c5 17 8 19 9 8 1 -10 7 -18 14 -19 6 0 1 -6 -12 -12 -19
-9 -25 -9 -28 0 -3 7 -10 10 -17 7 -7 -3 -12 4 -12 16 0 11 4 20 8 20 4 0 8
-6 8 -12z"/>
<path d="M898 943 c6 -2 18 -2 25 0 6 3 1 5 -13 5 -14 0 -19 -2 -12 -5z"/>
<path d="M1000 939 c0 -5 5 -7 10 -4 6 3 10 8 10 11 0 2 -4 4 -10 4 -5 0 -10
-5 -10 -11z"/>
<path d="M1143 943 c9 -2 23 -2 30 0 6 3 -1 5 -18 5 -16 0 -22 -2 -12 -5z"/>
<path d="M1238 943 c18 -2 45 -2 60 0 15 2 0 4 -33 4 -33 0 -45 -2 -27 -4z"/>
<path d="M1421 934 c0 -11 3 -14 6 -6 3 7 2 16 -1 19 -3 4 -6 -2 -5 -13z"/>
<path d="M1372 924 c-7 -8 -8 -14 -3 -14 10 0 25 19 20 25 -2 1 -10 -3 -17
-11z"/>
<path d="M1511 923 c-1 -18 19 -27 32 -13 9 10 8 12 -5 7 -9 -3 -19 -1 -22 6
-3 9 -5 9 -5 0z"/>
<path d="M912 908 c-7 -7 -12 -16 -12 -21 0 -5 7 -1 16 8 9 9 14 18 12 20 -2
3 -10 -1 -16 -7z"/>
<path d="M1333 875 c0 -22 2 -30 4 -17 2 12 2 30 0 40 -3 9 -5 -1 -4 -23z"/>
<path d="M940 890 c0 -5 5 -10 11 -10 5 0 7 5 4 10 -3 6 -8 10 -11 10 -2 0 -4
-4 -4 -10z"/>
<path d="M1303 865 c0 -22 2 -30 4 -17 2 12 2 30 0 40 -3 9 -5 -1 -4 -23z"/>
<path d="M1281 830 c0 -8 4 -24 9 -35 5 -13 9 -14 9 -5 0 8 -4 24 -9 35 -5 13
-9 14 -9 5z"/>
<path d="M1619 801 c-4 -40 -7 -45 -38 -56 -24 -8 -31 -14 -22 -19 8 -5 16 -3
21 4 4 7 12 10 17 7 16 -10 35 37 31 74 -4 32 -4 32 -9 -10z"/>
<path d="M1310 785 c0 -14 4 -25 9 -25 4 0 6 11 3 25 -2 14 -6 25 -8 25 -2 0
-4 -11 -4 -25z"/>
<path d="M1460 789 c0 -5 5 -7 10 -4 6 3 10 8 10 11 0 2 -4 4 -10 4 -5 0 -10
-5 -10 -11z"/>
<path d="M1490 749 c0 -5 5 -7 10 -4 6 3 10 8 10 11 0 2 -4 4 -10 4 -5 0 -10
-5 -10 -11z"/>
<path d="M1390 740 c-11 -8 -8 -9 13 -4 27 6 32 1 28 -36 -2 -13 0 -13 8 -1 6
10 6 21 0 33 -11 20 -27 23 -49 8z"/>
<path d="M1090 730 c0 -5 5 -10 10 -10 6 0 10 5 10 10 0 6 -4 10 -10 10 -5 0
-10 -4 -10 -10z"/>
<path d="M1460 729 c0 -5 5 -7 10 -4 6 3 10 8 10 11 0 2 -4 4 -10 4 -5 0 -10
-5 -10 -11z"/>
<path d="M1045 720 c-3 -5 -1 -10 4 -10 6 0 11 5 11 10 0 6 -2 10 -4 10 -3 0
-8 -4 -11 -10z"/>
<path d="M1510 720 c0 -5 5 -10 10 -10 6 0 10 5 10 10 0 6 -4 10 -10 10 -5 0
-10 -4 -10 -10z"/>
<path d="M1392 711 c-11 -6 -10 -10 4 -15 9 -3 19 -4 22 -1 3 3 0 5 -7 5 -7 0
-9 5 -6 10 7 12 4 12 -13 1z"/>
<path d="M1050 700 c-21 -5 -17 -7 20 -13 52 -7 56 -5 27 9 -12 5 -33 7 -47 4z"/>
<path d="M1475 700 c-3 -5 -1 -10 4 -10 6 0 11 5 11 10 0 6 -2 10 -4 10 -3 0
-8 -4 -11 -10z"/>
<path d="M956 692 c-3 -5 1 -9 9 -9 8 0 15 4 15 9 0 4 -4 8 -9 8 -6 0 -12 -4
-15 -8z"/>
<path d="M1000 689 c0 -5 5 -7 10 -4 6 3 10 8 10 11 0 2 -4 4 -10 4 -5 0 -10
-5 -10 -11z"/>
<path d="M1470 866 c0 -3 9 -10 20 -16 11 -6 20 -8 20 -6 0 3 -9 10 -20 16
-11 6 -20 8 -20 6z"/>
<path d="M1390 821 c0 -6 4 -13 10 -16 6 -3 7 1 4 9 -7 18 -14 21 -14 7z"/>
<path d="M806 928 c3 -5 10 -6 15 -3 13 9 11 12 -6 12 -8 0 -12 -4 -9 -9z"/>
<path d="M1704 915 c-3 -8 -4 -20 -2 -27 3 -7 7 -1 10 15 6 29 1 36 -8 12z"/>
<path d="M1710 860 c0 -5 5 -10 11 -10 5 0 7 5 4 10 -3 6 -8 10 -11 10 -2 0
-4 -4 -4 -10z"/>
<path d="M1701 704 c0 -11 3 -14 6 -6 3 7 2 16 -1 19 -3 4 -6 -2 -5 -13z"/>
<path d="M800 700 c0 -5 5 -10 11 -10 5 0 7 5 4 10 -3 6 -8 10 -11 10 -2 0 -4
-4 -4 -10z"/>
<path d="M1716 683 c-6 -14 -5 -15 5 -6 7 7 10 15 7 18 -3 3 -9 -2 -12 -12z"/>
<path d="M811 664 c0 -11 3 -14 6 -6 3 7 2 16 -1 19 -3 4 -6 -2 -5 -13z"/>
<path d="M860 616 c0 -2 7 -7 16 -10 8 -3 12 -2 9 4 -6 10 -25 14 -25 6z"/>
<path d="M1144 581 c39 -74 141 -83 199 -18 36 42 25 47 -98 47 l-116 0 15
-29z m176 1 c-6 -2 -8 -8 -4 -13 3 -5 -4 -9 -16 -9 -12 0 -19 4 -16 9 4 5 -4
7 -16 3 -21 -5 -21 -5 3 -16 24 -10 24 -10 -7 -14 -17 -1 -47 4 -65 12 -19 9
-24 13 -11 10 27 -7 29 4 3 14 -11 4 16 7 60 7 43 0 74 -2 69 -3z"/>
<path d="M1120 530 c0 -5 5 -10 11 -10 5 0 7 5 4 10 -3 6 -8 10 -11 10 -2 0
-4 -4 -4 -10z"/>
<path d="M805 510 c3 -5 11 -10 16 -10 6 0 7 5 4 10 -3 6 -11 10 -16 10 -6 0
-7 -4 -4 -10z"/>
<path d="M800 474 c0 -8 5 -12 10 -9 6 4 8 11 5 16 -9 14 -15 11 -15 -7z"/>
<path d="M840 470 c-9 -6 -10 -10 -3 -10 6 0 15 5 18 10 8 12 4 12 -15 0z"/>
<path d="M760 440 c-9 -6 -10 -10 -3 -10 6 0 15 5 18 10 8 12 4 12 -15 0z"/>
<path d="M1127 1406 c-3 -8 -2 -18 3 -21 13 -8 20 9 11 24 -6 10 -10 9 -14 -3z"/>
<path d="M1125 1339 c-1 -31 7 -30 12 1 1 10 -1 21 -5 24 -4 2 -7 -9 -7 -25z"/>
<path d="M1393 1313 c9 -2 25 -2 35 0 9 3 1 5 -18 5 -19 0 -27 -2 -17 -5z"/>
<path d="M1126 1273 c-4 -9 -3 -20 1 -24 4 -4 9 3 9 17 2 28 -1 31 -10 7z"/>
<path d="M1150 1260 c0 -5 5 -10 11 -10 5 0 7 5 4 10 -3 6 -8 10 -11 10 -2 0
-4 -4 -4 -10z"/>
<path d="M968 1203 c6 -2 18 -2 25 0 6 3 1 5 -13 5 -14 0 -19 -2 -12 -5z"/>
<path d="M1711 1094 c0 -11 3 -14 6 -6 3 7 2 16 -1 19 -3 4 -6 -2 -5 -13z"/>
<path d="M1740 1086 c0 -8 4 -17 9 -20 5 -4 7 3 4 14 -6 23 -13 26 -13 6z"/>
<path d="M785 1060 c-21 -22 -26 -33 -18 -41 8 -8 13 -6 17 8 4 11 17 26 31
33 13 7 22 17 19 22 -9 14 -19 9 -49 -22z"/>
<path d="M726 1068 c3 -4 11 -5 19 -1 21 7 19 12 -4 10 -11 0 -18 -5 -15 -9z"/>
<path d="M1800 993 c0 -6 9 -20 20 -33 11 -13 20 -20 20 -16 0 4 -9 19 -20 33
-11 14 -20 21 -20 16z"/>
<path d="M641 944 c0 -11 3 -14 6 -6 3 7 2 16 -1 19 -3 4 -6 -2 -5 -13z"/>
<path d="M1912 845 c0 -16 2 -22 5 -12 2 9 2 23 0 30 -3 6 -5 -1 -5 -18z"/>
<path d="M1806 647 c3 -10 9 -15 12 -12 3 3 0 11 -7 18 -10 9 -11 8 -5 -6z"/>
<path d="M1738 513 c5 -21 7 -23 10 -9 2 10 0 22 -6 28 -6 6 -7 0 -4 -19z"/>
<path d="M1666 461 c-4 -5 -2 -12 3 -15 5 -4 12 -2 15 3 4 5 2 12 -3 15 -5 4
-12 2 -15 -3z"/>
<path d="M940 400 c-9 -6 -10 -10 -3 -10 6 0 15 5 18 10 8 12 4 12 -15 0z"/>
<path d="M1468 393 c7 -3 16 -2 19 1 4 3 -2 6 -13 5 -11 0 -14 -3 -6 -6z"/>
<path d="M874 382 c3 -5 0 -13 -6 -15 -9 -4 -10 -6 -1 -6 17 -1 25 16 12 25
-7 4 -9 3 -5 -4z"/>
<path d="M640 351 c0 -6 4 -13 10 -16 6 -3 7 1 4 9 -7 18 -14 21 -14 7z"/>
<path d="M865 340 c-3 -5 -1 -10 4 -10 6 0 11 5 11 10 0 6 -2 10 -4 10 -3 0
-8 -4 -11 -10z"/>
<path d="M809 323 c-13 -16 -12 -17 4 -4 9 7 17 15 17 17 0 8 -8 3 -21 -13z"/>
<path d="M766 292 c-2 -4 4 -8 14 -8 10 0 16 4 14 8 -3 4 -9 8 -14 8 -5 0 -11
-4 -14 -8z"/>
<path d="M855 280 c3 -5 8 -10 11 -10 2 0 4 5 4 10 0 6 -5 10 -11 10 -5 0 -7
-4 -4 -10z"/>
<path d="M1378 273 c6 -2 10 -9 7 -14 -4 -5 1 -6 10 -2 13 5 14 7 3 14 -7 5
-17 8 -23 8 -5 0 -4 -3 3 -6z"/>
<path d="M1657 269 c7 -7 15 -10 18 -7 3 3 -2 9 -12 12 -14 6 -15 5 -6 -5z"/>
<path d="M1230 143 l0 -103 63 0 c73 0 113 25 103 64 -3 11 -6 24 -6 29 0 11
-30 8 -30 -3 0 -5 5 -10 10 -10 5 0 9 -6 8 -12 -3 -15 -31 -26 -70 -27 -23 -1
-28 3 -28 23 0 19 5 24 26 24 14 0 28 -7 31 -14 3 -8 9 -14 14 -14 11 0 -1 33
-15 42 -6 4 -7 11 -2 15 5 4 11 2 13 -5 8 -20 43 16 43 43 0 34 -18 43 -93 47
l-67 3 0 -102z m46 80 c-16 -4 -18 -12 -13 -56 4 -29 4 -46 1 -39 -3 6 -9 10
-13 8 -5 -3 -6 68 -2 92 1 1 11 1 24 1 18 -1 19 -2 3 -6z m94 -34 c0 -10 -5
-21 -11 -25 -7 -4 -10 -1 -7 7 3 8 -4 25 -16 37 l-21 24 28 -13 c15 -7 27 -20
27 -30z m-32 -8 c-2 -9 -15 -17 -29 -19 -21 -2 -27 2 -31 20 -4 21 -1 23 29
20 25 -3 33 -9 31 -21z m-91 -83 c-3 -8 -6 -5 -6 6 -1 11 2 17 5 13 3 -3 4
-12 1 -19z m23 -36 c0 -12 -3 -12 -15 -2 -8 7 -15 13 -15 15 0 1 7 2 15 2 8 0
15 -7 15 -15z"/>
<path d="M1474 236 c-34 -15 -44 -32 -51 -85 -8 -71 29 -113 102 -113 58 0 80
14 98 61 40 99 -49 180 -149 137z m73 -17 c-16 -4 -36 -5 -44 -2 -11 4 -14 2
-9 -5 5 -8 2 -10 -8 -6 -28 11 -8 21 41 21 41 0 44 -1 20 -8z m16 -16 c-10 -3
-9 -9 3 -21 11 -11 15 -27 11 -54 -5 -40 7 -52 18 -18 7 21 25 28 25 9 0 -23
-21 -48 -35 -43 -8 4 -15 2 -15 -4 0 -5 -7 -12 -15 -16 -19 -7 -19 -1 -1 17
13 13 10 14 -24 13 -49 -1 -55 6 -55 60 0 24 -3 44 -7 44 -5 0 -8 -5 -8 -11 0
-5 -5 -7 -11 -3 -8 5 -6 10 5 16 9 5 20 7 24 4 4 -2 23 -1 42 4 40 9 61 11 43
3z m48 -24 c8 -16 8 -24 -2 -33 -9 -8 -11 -7 -6 7 4 9 2 17 -2 17 -5 0 -11 7
-15 15 -8 23 12 18 25 -6z m-156 -49 c-3 -9 1 -23 10 -30 8 -7 12 -17 8 -23
-4 -6 0 -8 11 -4 10 4 15 3 11 -3 -3 -6 -10 -10 -14 -10 -14 0 -42 49 -46 81
-3 26 -1 29 11 18 8 -6 12 -20 9 -29z m75 -64 c0 -3 -4 -8 -10 -11 -5 -3 -10
-1 -10 4 0 6 5 11 10 11 6 0 10 -2 10 -4z"/>
<path d="M1510 150 c-9 -6 -10 -10 -3 -10 6 0 15 5 18 10 8 12 4 12 -15 0z"/>
<path d="M855 230 c3 -5 8 -10 11 -10 2 0 4 5 4 10 0 6 -5 10 -11 10 -5 0 -7
-4 -4 -10z"/>
<path d="M1640 220 c0 -16 7 -20 30 -20 l30 0 0 -80 0 -80 29 0 c28 0 29 2 25
37 -11 111 -12 153 -4 153 5 0 7 -7 4 -15 -5 -11 1 -15 25 -15 24 0 31 4 31
20 0 18 -7 20 -85 20 -78 0 -85 -2 -85 -20z m60 0 c0 -5 -2 -10 -4 -10 -3 0
-8 5 -11 10 -3 6 -1 10 4 10 6 0 11 -4 11 -10z m32 -7 c2 -10 1 -29 -3 -43 -6
-20 -7 -21 -8 -5 -1 11 -4 30 -7 43 -4 12 -2 22 4 22 5 0 12 -8 14 -17z m65
11 c-3 -3 -12 -4 -19 -1 -8 3 -5 6 6 6 11 1 17 -2 13 -5z m-57 -94 c0 -5 -2
-10 -4 -10 -3 0 -8 5 -11 10 -3 6 -1 10 4 10 6 0 11 -4 11 -10z m0 -30 c0 -5
-4 -10 -10 -10 -5 0 -10 5 -10 10 0 6 5 10 10 10 6 0 10 -4 10 -10z"/>
<path d="M839 201 c0 -6 -1 -27 -1 -46 0 -90 3 -115 11 -115 5 0 8 19 7 42
l-1 43 48 3 47 3 0 -45 c0 -26 5 -46 10 -46 16 0 12 86 -5 100 -8 7 -34 11
-60 8 -45 -3 -45 -3 -41 24 2 16 0 30 -5 34 -5 3 -9 0 -10 -5z"/>
<path d="M727 189 c7 -7 15 -10 18 -7 3 3 -2 9 -12 12 -14 6 -15 5 -6 -5z"/>
<path d="M1026 192 c-3 -5 1 -9 9 -9 8 0 12 4 9 9 -3 4 -7 8 -9 8 -2 0 -6 -4
-9 -8z"/>
<path d="M646 165 c-9 -26 -7 -32 5 -12 6 10 9 21 6 23 -2 3 -7 -2 -11 -11z"/>
<path d="M1148 163 c-7 -29 3 -123 13 -123 5 0 9 20 9 45 0 33 4 45 15 45 8 0
15 5 15 10 0 6 -7 10 -15 10 -8 0 -15 7 -15 15 0 21 -17 19 -22 -2z"/>
<path d="M702 141 c-9 -5 -12 -24 -10 -52 l3 -44 63 -3 c38 -2 62 1 62 8 0 6
-23 10 -54 10 -48 0 -54 2 -58 23 -7 39 1 47 48 47 28 0 43 4 39 10 -7 12 -75
13 -93 1z"/>
<path d="M978 143 c7 -3 16 -2 19 1 4 3 -2 6 -13 5 -11 0 -14 -3 -6 -6z"/>
<path d="M1015 140 c-4 -6 11 -10 38 -10 30 0 47 -5 50 -15 5 -11 -6 -15 -51
-17 -53 -3 -57 -5 -57 -28 0 -24 3 -25 63 -28 l62 -3 0 49 c0 36 -4 52 -16 56
-25 10 -82 7 -89 -4z m85 -65 c3 -6 -16 -11 -42 -13 -42 -3 -58 4 -44 19 9 8
81 3 86 -6z"/>
<path d="M1647 78 c6 -7 13 -20 16 -28 4 -10 6 -8 6 6 1 12 -6 25 -15 28 -13
5 -14 3 -7 -6z"/>
</g>
</svg>
