<?xml version="1.0" standalone="no"?>
<!DOCTYPE svg PUBLIC "-//W3C//DTD SVG 20010904//EN"
 "http://www.w3.org/TR/2001/REC-SVG-20010904/DTD/svg10.dtd">
<svg version="1.0" xmlns="http://www.w3.org/2000/svg"
 width="300.000000pt" height="368.000000pt" viewBox="0 0 300.000000 368.000000"
 preserveAspectRatio="xMidYMid meet">
<metadata>
Created by potrace 1.10, written by Peter Selinger 2001-2011
</metadata>
<g transform="translate(0.000000,368.000000) scale(0.100000,-0.100000)"
fill="#000000" stroke="none">
<path d="M2274 3337 c-10 -12 -9 -55 1 -65 2 -3 17 -4 32 -4 62 0 163 -121
209 -249 13 -39 13 -40 -11 -51 -23 -10 -30 -6 -87 54 -81 83 -116 107 -213
147 -102 43 -240 60 -351 44 -42 -6 -79 -15 -83 -19 -3 -5 -18 -10 -33 -11
-36 -2 -126 -46 -181 -88 -24 -19 -46 -33 -48 -32 -2 1 -3 1 -2 -1 1 -2 -16
-20 -38 -39 -22 -20 -37 -38 -35 -41 5 -5 102 71 124 97 6 8 12 11 12 6 0 -4
8 -1 18 8 21 19 164 89 169 83 3 -2 0 -13 -6 -24 -16 -30 -13 -69 5 -76 22 -8
157 -7 170 2 6 4 24 33 39 65 l27 58 46 -6 c139 -19 263 -80 352 -171 34 -35
67 -64 72 -64 5 0 4 -10 -3 -21 -35 -66 49 -238 128 -263 19 -6 25 -42 27
-173 1 -39 4 -69 9 -66 15 9 6 -14 -10 -29 -28 -23 -98 -45 -223 -70 -104 -20
-144 -22 -410 -22 -311 0 -439 12 -598 55 -111 29 -134 44 -132 82 1 18 1 37
0 42 -1 6 -2 13 -1 17 0 4 3 29 6 55 3 27 9 63 14 81 9 29 8 32 -4 22 -8 -7
-13 -16 -10 -20 3 -5 1 -11 -5 -15 -6 -4 -8 -11 -5 -16 4 -5 3 -14 0 -20 -12
-19 -15 -147 -4 -176 6 -15 19 -37 29 -48 11 -12 20 -39 22 -65 3 -37 8 -47
34 -62 164 -95 850 -118 1143 -38 102 28 121 42 121 86 0 25 9 47 31 74 32 39
32 41 25 117 -9 103 -13 134 -24 163 -8 21 -4 31 24 63 27 29 34 46 35 80 1
23 3 52 4 64 4 36 -39 89 -89 109 -41 17 -52 31 -60 74 -6 30 -91 155 -137
200 -33 32 -59 64 -59 71 0 13 -29 38 -45 38 -5 0 -15 -5 -21 -12z m46 -27 c0
-21 -24 -28 -35 -10 -8 14 3 30 21 30 8 0 14 -9 14 -20z m-360 -114 c0 -20
-44 -95 -57 -98 -25 -6 -132 -2 -139 5 -4 3 2 21 13 39 15 26 29 35 69 45 48
11 114 17 114 9z m620 -272 c0 -31 46 -123 65 -131 17 -6 21 -33 5 -33 -5 0
-10 -6 -10 -13 0 -8 -9 -22 -20 -32 -19 -17 -21 -17 -46 0 -14 9 -29 26 -31
36 -3 10 -10 19 -15 19 -15 0 -48 82 -48 122 0 33 4 40 33 51 43 18 67 11 67
-19z m48 -4 c33 -31 44 -98 17 -103 -12 -2 -55 80 -55 106 0 22 11 22 38 -3z
m-48 -569 c-31 -59 -264 -94 -630 -93 -209 1 -340 11 -465 37 -136 28 -200 53
-182 71 3 3 34 -2 69 -11 34 -9 79 -18 98 -21 19 -2 66 -9 103 -15 105 -17
117 -18 337 -22 289 -6 508 18 650 71 31 12 35 9 20 -17z m-1243 -48 c-9 -8
12 -33 27 -33 6 0 3 5 -7 11 -9 6 -15 14 -13 18 4 6 73 -8 181 -38 3 0 10 -1
16 -1 8 0 7 -6 -2 -17 -13 -17 -12 -17 6 -2 11 9 27 15 35 14 8 -1 44 -5 80
-9 36 -3 94 -9 130 -12 67 -7 119 -7 250 -4 46 1 76 -2 78 -9 2 -6 8 -11 13
-11 4 0 6 7 3 15 -4 8 -1 15 5 15 6 0 12 -8 12 -17 1 -17 2 -17 6 0 5 18 43
24 43 7 0 -7 6 -7 20 0 11 6 20 8 20 4 0 -3 8 0 17 7 15 12 16 12 8 -1 -8 -13
-7 -13 9 -1 15 13 19 13 27 0 5 -8 9 -9 9 -3 0 6 10 10 23 9 12 -1 26 0 32 3
5 4 27 8 48 9 20 2 59 12 86 22 30 11 54 15 63 10 10 -6 10 -9 1 -9 -7 0 -13
-6 -13 -13 0 -23 -218 -67 -347 -70 -29 -1 -53 -6 -53 -11 0 -5 -7 -3 -15 4
-10 8 -15 9 -15 1 0 -14 -379 -7 -495 8 -185 26 -312 64 -312 95 0 9 7 16 15
16 9 0 12 -3 9 -7z"/>
<path d="M1623 3323 c-7 -2 -13 -15 -13 -28 0 -15 -7 -26 -20 -30 -56 -18
-173 -146 -212 -232 -12 -28 -25 -43 -37 -43 -28 0 -57 -29 -92 -90 -17 -30
-28 -44 -24 -30 3 14 7 31 9 38 1 7 15 27 30 43 24 25 25 29 9 29 -25 0 -73
-76 -73 -115 1 -52 20 -119 42 -142 l21 -23 27 68 c28 71 68 142 104 180 20
22 20 24 3 37 -17 12 -16 16 15 67 63 104 168 202 211 196 26 -3 57 17 57 38
0 14 -27 45 -38 43 -4 0 -13 -3 -19 -6z m37 -39 c0 -17 -26 -19 -36 -3 -7 12
15 31 28 23 4 -3 8 -12 8 -20z m-290 -323 c0 -5 -7 -14 -15 -21 -8 -7 -15 -18
-15 -25 0 -7 -6 -18 -14 -24 -8 -7 -24 -32 -35 -57 -19 -39 -24 -43 -41 -34
-11 6 -20 15 -20 21 0 16 37 84 64 115 22 27 76 45 76 25z"/>
<path d="M1976 3054 c-71 -22 -166 -86 -166 -113 0 -16 -16 -14 -45 5 -38 25
-146 30 -199 10 -54 -21 -128 -98 -158 -163 -32 -71 -31 -191 1 -257 l24 -49
20 24 c19 24 19 24 0 27 -24 4 -48 79 -45 146 2 55 35 131 81 187 61 74 171
99 259 59 49 -22 69 -18 105 25 14 17 49 44 79 60 47 27 62 30 143 30 79 0 97
-3 149 -29 69 -34 126 -89 158 -154 19 -39 23 -63 23 -142 0 -84 -3 -102 -28
-152 -40 -82 -112 -143 -198 -169 -73 -22 -148 -21 -192 3 -12 6 -24 11 -27
10 -3 0 -29 13 -58 30 l-53 30 -62 -31 c-82 -41 -160 -43 -243 -6 -68 30 -91
28 -46 -3 93 -67 223 -69 309 -6 39 29 39 29 66 3 48 -46 106 -64 207 -64 85
0 101 3 153 29 66 33 136 106 169 175 32 66 33 225 2 292 -75 161 -260 244
-428 193z"/>
<path d="M2028 2968 c-59 -18 -129 -77 -160 -137 -56 -107 -28 -250 62 -321
114 -90 292 -74 374 33 129 169 19 415 -192 432 -26 2 -64 -1 -84 -7z m157
-37 c95 -43 147 -122 147 -221 0 -245 -306 -334 -444 -129 -81 121 -18 304
123 355 50 18 128 16 174 -5z"/>
<path d="M2004 2901 c-47 -21 -80 -53 -99 -96 -23 -53 -25 -64 -11 -59 8 3 12
14 9 27 -4 18 -3 19 6 7 9 -13 11 -13 11 1 0 32 79 108 128 123 33 10 39 15
22 15 -14 0 -43 -8 -66 -18z"/>
<path d="M2234 2867 c21 -20 41 -37 44 -37 10 0 -42 51 -63 63 -11 6 -2 -6 19
-26z"/>
<path d="M2280 2811 c0 -6 4 -13 10 -16 6 -3 7 1 4 9 -7 18 -14 21 -14 7z"/>
<path d="M2035 2786 c-79 -80 6 -202 108 -155 23 10 57 56 57 77 0 5 -20 8
-45 6 l-44 -3 6 32 c3 18 12 37 19 43 20 16 6 24 -38 24 -28 0 -46 -7 -63 -24z
m69 -15 c3 -5 -4 -11 -15 -14 -13 -4 -18 -10 -13 -18 4 -7 3 -10 -3 -6 -20 13
-22 -24 -3 -43 24 -24 29 -24 57 -5 26 19 43 1 21 -22 -24 -23 -75 -20 -98 7
-24 28 -26 58 -4 88 15 22 48 30 58 13z"/>
<path d="M2301 2764 c0 -11 3 -14 6 -6 3 7 2 16 -1 19 -3 4 -6 -2 -5 -13z"/>
<path d="M1895 2730 c-13 -21 -14 -50 -1 -43 7 5 7 2 0 -8 -7 -8 -8 -23 -4
-34 6 -17 9 -14 15 16 4 20 5 47 3 60 -2 19 -5 21 -13 9z"/>
<path d="M1914 2619 c2 -33 31 -73 64 -89 15 -8 30 -13 35 -12 4 1 7 -3 7 -10
0 -6 2 -9 6 -6 3 3 21 2 42 -3 25 -5 41 -4 51 4 8 7 16 11 18 10 13 -10 46 1
78 27 46 37 38 39 -14 5 -29 -20 -53 -26 -100 -28 -33 -2 -61 1 -61 6 0 4 -4
6 -9 2 -5 -3 -12 -1 -16 5 -3 5 -16 10 -28 10 -18 0 -20 2 -7 11 13 10 13 10
-1 6 -17 -5 -66 39 -49 45 7 2 6 10 -3 22 -13 18 -14 18 -13 -5z"/>
<path d="M1862 2873 c-23 -31 -52 -91 -52 -110 0 -15 19 12 25 34 3 16 17 42
29 58 48 64 46 79 -2 18z"/>
<path d="M1542 2823 c-28 -14 -49 -30 -47 -34 3 -4 -2 -10 -11 -13 -21 -8 -44
-68 -44 -116 0 -22 9 -59 21 -82 20 -39 20 -43 5 -75 -15 -31 -15 -33 3 -33
11 0 27 -3 36 -7 16 -6 16 -4 0 21 -24 36 -13 43 26 15 42 -30 126 -37 173
-15 31 15 87 69 113 112 11 18 12 18 12 -4 1 -31 82 -116 134 -141 46 -22 131
-36 122 -20 -4 5 -19 9 -34 9 -29 0 -112 39 -145 68 -47 42 -68 93 -92 219 -6
32 -51 81 -95 103 -54 28 -114 26 -177 -7z m186 -20 c67 -50 93 -144 57 -212
-51 -99 -178 -120 -256 -42 -85 85 -63 217 46 267 40 19 119 12 153 -13z
m-261 -195 c-3 -8 -6 -5 -6 6 -1 11 2 17 5 13 3 -3 4 -12 1 -19z m23 -38 c6
-11 8 -20 6 -20 -3 0 -10 9 -16 20 -6 11 -8 20 -6 20 3 0 10 -9 16 -20z"/>
<path d="M1605 2800 c-16 -7 -17 -9 -3 -9 9 -1 20 4 23 9 7 11 7 11 -20 0z"/>
<path d="M1540 2760 c-37 -40 -46 -94 -25 -148 20 -49 71 -85 112 -79 27 4 27
4 3 6 -37 2 -89 50 -104 95 -17 48 -7 88 31 128 15 15 23 28 19 28 -4 0 -21
-14 -36 -30z"/>
<path d="M1632 2760 c-13 -6 -29 -26 -38 -45 -12 -30 -12 -39 0 -69 32 -77
137 -75 164 3 l10 29 -44 -3 c-48 -4 -46 -8 -28 55 3 11 11 20 17 20 7 0 6 4
-3 10 -18 12 -48 12 -78 0z m29 -40 c-13 -11 -18 -20 -12 -20 9 0 9 -5 1 -20
-6 -11 -8 -25 -5 -30 9 -14 49 -12 63 2 9 9 12 8 12 -5 0 -24 -29 -36 -63 -26
-36 10 -47 24 -47 61 0 28 31 58 60 58 11 -1 8 -6 -9 -20z"/>
<path d="M1670 2540 c-13 -8 -12 -10 3 -10 9 0 17 5 17 10 0 12 -1 12 -20 0z"/>
<path d="M2490 2677 c0 -33 -35 -147 -62 -200 -10 -21 -35 -56 -55 -77 -19
-22 -34 -40 -32 -40 3 0 27 8 56 19 131 48 166 118 127 252 -19 64 -34 85 -34
46z m29 -102 c9 -33 8 -46 -10 -81 -19 -40 -75 -94 -98 -94 -5 0 5 25 23 55
19 30 39 82 47 115 14 65 21 66 38 5z"/>
<path d="M1353 2620 c0 -25 2 -35 4 -22 2 12 2 32 0 45 -2 12 -4 2 -4 -23z"/>
<path d="M1367 2549 c4 -13 8 -18 11 -10 2 7 -1 18 -6 23 -8 8 -9 4 -5 -13z"/>
<path d="M1380 2508 c0 -7 -3 -24 -7 -37 -5 -21 -4 -22 16 -12 11 7 21 16 21
22 0 6 -4 7 -10 4 -5 -3 -7 0 -4 8 3 8 1 18 -5 22 -6 3 -11 0 -11 -7z"/>
<path d="M1385 2440 c-3 -5 1 -10 9 -10 9 0 16 5 16 10 0 6 -4 10 -9 10 -6 0
-13 -4 -16 -10z"/>
<path d="M2100 2432 c0 -5 14 -7 30 -4 17 2 30 6 30 8 0 2 -13 4 -30 4 -16 0
-30 -4 -30 -8z"/>
<path d="M1450 2420 c0 -5 5 -10 11 -10 5 0 7 5 4 10 -3 6 -8 10 -11 10 -2 0
-4 -4 -4 -10z"/>
<path d="M2606 2276 c3 -8 12 -17 20 -20 24 -9 16 -20 -35 -43 -74 -35 -281
-71 -484 -87 -61 -4 -68 -3 -62 11 5 14 3 14 -15 -2 -18 -16 -20 -30 -19 -139
0 -67 4 -172 8 -234 8 -113 9 -114 42 -142 43 -36 52 -30 12 8 -31 28 -31 29
-38 167 -4 77 -8 178 -8 225 l-2 85 115 7 c216 12 432 53 461 88 11 12 24 17
38 13 11 -3 19 -9 16 -13 -10 -17 -7 -162 4 -173 9 -9 12 15 10 106 -2 122 -8
140 -46 152 -18 5 -22 3 -17 -9z"/>
<path d="M1230 2270 c-8 -5 -12 -11 -10 -14 3 -2 14 2 24 10 22 15 10 19 -14
4z"/>
<path d="M1204 2143 c4 -54 9 -137 12 -185 l4 -87 -35 -27 c-27 -20 -33 -29
-23 -35 21 -14 31 -10 24 7 -5 13 -1 15 19 10 14 -4 25 -2 25 4 0 5 -5 10 -12
10 -9 0 -9 3 0 12 7 7 12 21 12 33 0 17 2 18 11 5 8 -11 9 -3 5 30 -15 119
-18 250 -7 250 24 0 81 -29 81 -42 1 -69 12 -222 20 -276 14 -96 13 -98 -21
-112 -26 -11 -32 -11 -40 1 -6 10 -9 8 -9 -11 0 -21 -2 -22 -11 -10 -9 13 -10
12 -5 -3 5 -15 1 -17 -34 -13 -83 10 -290 59 -290 69 0 15 -110 289 -122 304
-8 10 -85 33 -128 39 -8 1 -60 11 -115 22 -204 42 -440 69 -463 54 -14 -9 11
-87 81 -257 59 -142 101 -253 112 -294 10 -39 17 -45 56 -60 24 -10 46 -17 49
-18 3 0 50 -14 105 -30 55 -17 190 -58 300 -91 110 -33 209 -63 220 -67 18 -7
18 -6 5 7 -8 8 -170 61 -360 117 -190 57 -349 107 -354 111 -4 5 29 -3 75 -16
46 -14 183 -54 304 -89 121 -35 243 -71 270 -79 61 -19 58 -19 52 -2 -8 21 28
49 52 41 15 -5 19 -3 16 8 -4 9 7 19 32 30 59 25 76 27 101 14 22 -13 22 -13
-15 -29 -21 -9 -55 -21 -75 -28 -30 -9 -38 -17 -38 -35 0 -34 -18 -41 -22 -8
-2 14 -8 28 -15 30 -17 6 -28 -44 -14 -61 16 -19 11 -20 151 39 36 15 76 31
90 35 14 4 33 11 43 15 12 5 17 2 17 -10 0 -9 -4 -14 -9 -11 -5 3 -8 -6 -8
-19 0 -32 14 -32 28 -1 9 19 8 29 -5 47 -9 13 -16 31 -16 41 0 15 -7 16 -50
11 -44 -5 -54 -3 -75 17 -14 13 -25 18 -25 12 0 -6 -12 -15 -27 -18 -16 -4
-42 -18 -59 -31 -49 -37 -41 -46 -114 134 -19 46 -31 85 -28 88 3 3 17 -1 31
-8 17 -9 23 -17 16 -24 -9 -9 26 -12 196 -15 29 -1 77 8 114 22 62 22 63 23
57 54 -12 57 -28 284 -24 339 l3 55 -50 18 c-27 10 -60 28 -74 42 l-24 24 7
-99z m-941 27 c54 -5 176 -25 271 -44 95 -19 188 -38 206 -41 19 -3 36 -8 39
-11 12 -11 -9 -11 -69 2 -54 12 -252 49 -365 69 -16 3 -73 10 -125 16 -52 6
-97 13 -99 15 -6 6 34 4 142 -6z m-23 -31 c36 -6 74 -12 85 -13 11 -1 34 -5
50 -9 17 -3 53 -9 80 -12 28 -3 79 -12 115 -20 36 -8 98 -20 138 -27 87 -16
86 -15 152 -198 23 -63 49 -122 56 -131 8 -8 14 -23 14 -32 0 -9 5 -19 10 -22
6 -4 8 -11 5 -16 -4 -5 -1 -9 5 -9 6 0 9 -4 6 -8 -3 -5 2 -21 10 -36 7 -16 14
-36 14 -45 0 -9 4 -21 9 -27 6 -5 13 -28 17 -51 5 -35 4 -43 -9 -43 -9 0 -136
34 -284 76 -364 103 -388 110 -388 120 0 11 -31 96 -51 141 -8 17 -14 35 -14
40 0 4 -7 22 -16 38 -8 17 -26 59 -39 95 -13 36 -35 95 -49 133 l-26 67 23 0
c12 0 51 -5 87 -11z m1050 -642 c0 -8 -6 -14 -12 -15 -7 0 -24 -3 -38 -7 -24
-6 -24 -6 -6 9 10 8 23 13 27 10 5 -3 9 0 9 5 0 6 5 11 10 11 6 0 10 -6 10
-13z m-84 -36 c-7 -11 -97 -43 -104 -37 -5 5 78 44 96 45 7 1 11 -3 8 -8z"/>
<path d="M458 1869 c-25 -14 -23 -61 5 -87 51 -48 117 -44 117 7 0 31 -6 40
-44 69 -31 24 -52 27 -78 11z m81 -38 c35 -32 38 -43 17 -60 -28 -23 -112 41
-99 75 9 23 49 16 82 -15z"/>
<path d="M1375 2170 c-15 -16 -18 -36 -17 -112 2 -123 22 -310 34 -323 7 -7 8
2 4 25 -12 68 -25 235 -26 317 0 80 1 83 28 97 16 9 21 15 11 16 -9 0 -24 -9
-34 -20z"/>
<path d="M1403 2123 c9 -2 23 -2 30 0 6 3 -1 5 -18 5 -16 0 -22 -2 -12 -5z"/>
<path d="M1855 2120 l-140 -5 100 -7 c146 -11 172 -10 179 7 3 8 4 14 3 13 -1
-1 -65 -5 -142 -8z"/>
<path d="M2484 1994 c-58 -39 -59 -47 -10 -61 47 -14 81 -43 59 -50 -7 -3 -13
-9 -13 -14 0 -16 21 -10 52 16 36 31 74 33 81 5 4 -15 0 -20 -14 -20 -11 0
-44 -9 -74 -19 -29 -10 -56 -17 -59 -14 -3 3 -9 -3 -12 -13 -4 -10 -15 -30
-25 -42 l-18 -24 -6 25 c-12 48 -2 101 23 113 23 12 23 12 -9 23 -37 13 -45 7
-55 -47 -9 -48 1 -111 24 -142 l20 -26 -27 -39 c-23 -35 -61 -67 -110 -95 -12
-7 -10 -15 13 -50 23 -35 27 -51 23 -82 l-5 -39 51 29 c46 26 52 33 55 66 l2
37 -35 -27 c-40 -30 -48 -53 -10 -28 14 9 25 12 25 6 0 -5 -16 -20 -36 -31
l-37 -22 6 22 c4 14 -3 38 -18 64 -24 41 -24 41 -5 58 19 16 23 16 70 -8 51
-26 54 -31 50 -75 -2 -22 0 -23 17 -10 35 27 73 64 73 71 0 4 -4 19 -10 34
l-10 26 -28 -32 -28 -31 -49 24 c-47 24 -48 26 -27 37 13 7 20 16 17 22 -8 11
-11 11 61 -2 67 -12 84 -23 84 -52 0 -15 3 -18 11 -10 8 8 8 17 -1 32 -12 24
-6 41 16 41 12 0 12 -4 4 -20 -8 -14 -8 -20 0 -20 16 0 5 -30 -42 -111 -29
-50 -51 -76 -81 -93 -48 -28 -236 -86 -281 -87 -17 0 -40 -4 -51 -9 -24 -11
73 -3 125 11 46 12 53 11 44 -2 -19 -32 131 34 191 84 51 42 81 93 114 197 16
49 46 117 67 151 33 53 38 68 38 122 -1 110 -41 157 -135 157 -44 0 -65 -6
-95 -26z m173 -28 c33 -36 51 -109 33 -131 -6 -7 -8 -19 -5 -27 7 -17 -20 -56
-31 -45 -5 4 -2 12 6 17 12 7 12 13 0 37 l-14 28 -4 -27 c-3 -23 -8 -28 -32
-28 -16 0 -50 -7 -76 -16 -25 -8 -48 -14 -50 -11 -2 2 2 15 8 29 10 21 28 31
82 47 66 20 70 20 89 4 19 -16 20 -17 14 -1 -3 9 -1 18 4 20 18 6 -13 58 -38
64 -13 4 -41 0 -61 -8 -35 -14 -39 -13 -70 11 l-34 25 39 23 c57 34 104 31
140 -11z m-213 -214 c15 -29 19 -32 29 -19 7 9 30 20 52 26 78 21 125 10 125
-28 -1 -14 -3 -13 -14 2 -17 22 -22 22 -29 -2 -4 -16 -14 -20 -61 -20 -30 0
-60 -2 -64 -5 -12 -7 -48 32 -61 67 -6 16 -10 45 -10 65 2 36 2 36 8 -8 4 -25
15 -60 25 -78z m162 -77 c9 -14 14 -28 11 -31 -3 -3 -11 5 -18 17 l-12 23 -21
-27 c-21 -26 -25 -27 -69 -18 -56 10 -60 13 -51 34 6 17 31 23 101 26 35 1 45
-3 59 -24z m-76 -125 c-6 -11 -19 -24 -30 -30 -17 -9 -20 -8 -20 11 0 15 4 19
16 15 8 -3 13 -2 9 3 -3 5 1 12 7 14 24 10 29 7 18 -13z"/>
<path d="M2515 1800 c-3 -6 1 -7 9 -4 18 7 21 14 7 14 -6 0 -13 -4 -16 -10z"/>
<path d="M1452 1970 c-25 -41 -7 -150 25 -150 7 0 13 -7 13 -15 0 -21 11 -19
45 11 24 20 25 23 7 14 -45 -22 -69 -6 -83 56 -10 45 -10 60 0 76 7 11 11 22
9 24 -2 1 -9 -6 -16 -16z"/>
<path d="M1516 1981 c-3 -5 1 -12 10 -15 9 -3 14 -13 10 -21 -3 -8 -1 -17 4
-20 5 -3 14 -24 20 -45 6 -22 17 -40 24 -40 10 0 8 15 -11 58 -13 31 -27 65
-30 75 -6 18 -19 22 -27 8z"/>
<path d="M2059 1943 c-13 -16 -12 -17 4 -4 9 7 17 15 17 17 0 8 -8 3 -21 -13z"/>
<path d="M2086 1934 c-17 -17 -20 -63 -10 -163 6 -54 10 -62 31 -67 40 -10 58
15 44 63 l-10 38 4 -36 c7 -46 -20 -63 -35 -23 -13 33 -13 64 0 64 6 0 10 5
10 11 0 5 -4 7 -10 4 -6 -4 -10 7 -10 25 0 20 4 29 11 25 6 -4 8 -14 5 -22 -3
-8 -1 -11 4 -8 6 3 10 -3 10 -14 0 -12 4 -21 10 -21 16 0 -2 63 -23 81 -13 10
-17 21 -12 29 6 10 12 7 26 -11 l19 -24 0 22 c0 12 -9 27 -19 33 -25 13 -27
13 -45 -6z"/>
<path d="M1253 1835 c0 -22 2 -30 4 -17 2 12 2 30 0 40 -3 9 -5 -1 -4 -23z"/>
<path d="M1040 1830 c-29 -6 -26 -7 25 -7 40 0 53 3 40 8 -23 9 -19 9 -65 -1z"/>
<path d="M1717 1829 c7 -7 15 -10 18 -7 3 3 -2 9 -12 12 -14 6 -15 5 -6 -5z"/>
<path d="M1770 1813 c0 -4 21 -19 48 -33 63 -33 122 -70 149 -94 13 -11 25
-17 28 -15 2 3 -17 21 -43 40 -60 45 -182 113 -182 102z"/>
<path d="M2118 1804 c-6 -6 1 -66 8 -73 2 -2 4 14 4 37 0 42 -2 47 -12 36z"/>
<path d="M1218 1784 c-14 -17 -15 -21 -2 -38 18 -25 26 -16 22 24 -3 31 -4 32
-20 14z"/>
<path d="M2381 1767 c-1 -22 28 -81 36 -73 3 3 -1 16 -10 29 -8 12 -17 32 -20
42 -4 18 -5 18 -6 2z"/>
<path d="M1458 1738 c-8 -13 -20 -42 -26 -66 -10 -33 -21 -46 -52 -62 -22 -11
-44 -29 -50 -41 -9 -16 -3 -14 31 10 23 17 46 31 52 31 18 0 -3 -103 -25 -127
-12 -13 -16 -23 -10 -23 6 0 14 5 17 10 13 20 22 9 33 -41 17 -71 15 -89 -5
-86 -10 1 -24 6 -30 10 -7 5 -13 4 -13 0 0 -18 40 -34 60 -23 26 14 40 13 40
-4 0 -19 87 -95 117 -102 27 -7 30 -36 8 -74 -22 -39 -19 -45 40 -64 82 -28
167 -24 137 6 -9 9 -12 9 -12 -1 0 -18 -97 -9 -137 13 -37 20 -9 21 47 1 42
-15 60 -13 60 6 0 5 7 26 15 46 13 31 17 34 31 22 13 -10 17 -10 24 1 5 7 18
14 29 15 17 1 21 -4 22 -29 1 -21 3 -25 6 -11 7 28 23 43 23 22 0 -9 5 -17 10
-17 6 0 9 3 9 8 -3 20 2 32 16 32 10 0 15 -11 15 -35 0 -35 0 -35 46 -35 l47
0 -5 45 c-6 49 -1 60 18 45 8 -8 16 -6 27 5 9 9 17 11 20 5 3 -6 4 -5 3 2 -4
20 -65 17 -161 -7 -109 -28 -282 -29 -312 -4 -10 9 -25 18 -33 21 -8 3 5 8 28
12 24 3 62 16 83 27 34 17 45 18 77 9 57 -17 252 -26 252 -11 0 7 -28 11 -88
11 -49 0 -114 5 -146 11 -53 11 -61 10 -104 -12 -27 -13 -66 -23 -91 -23 -42
-1 -46 2 -65 37 -11 20 -23 37 -28 37 -5 0 -3 -10 3 -22 11 -21 11 -22 -4 -9
-10 7 -17 18 -17 24 0 5 -7 15 -16 21 -21 16 -36 77 -41 170 -5 80 7 144 34
199 18 35 11 46 -9 15z m558 -568 c-1 -21 -7 -26 -33 -28 -32 -3 -33 -2 -33
32 0 29 4 36 19 36 11 0 23 5 27 12 9 15 21 -16 20 -52z m-359 6 c-4 -9 3 -16
16 -20 38 -10 55 -7 60 12 4 13 5 14 6 1 0 -8 -5 -23 -12 -33 -10 -14 -21 -16
-51 -11 -41 8 -55 27 -36 50 16 19 24 19 17 1z m63 -3 c0 -14 -10 -16 -34 -7
-25 9 -19 22 9 20 14 0 25 -7 25 -13z"/>
<path d="M1345 1689 c-11 -5 -38 -13 -60 -18 -22 -6 -49 -18 -60 -26 -19 -16
-19 -16 3 -10 21 6 23 4 17 -15 -6 -19 -4 -18 22 7 24 25 83 58 105 58 3 0 9
3 12 6 9 8 -17 7 -39 -2z"/>
<path d="M990 1652 c0 -16 15 -23 89 -41 49 -11 92 -21 95 -21 3 0 6 10 6 23
0 21 -7 24 -77 36 -43 7 -86 15 -95 18 -13 3 -18 -1 -18 -15z"/>
<path d="M1060 1590 c19 -13 30 -13 30 0 0 6 -10 10 -22 10 -19 0 -20 -2 -8
-10z"/>
<path d="M1120 1580 c8 -5 22 -10 30 -10 13 0 13 1 0 10 -8 5 -22 10 -30 10
-13 0 -13 -1 0 -10z"/>
<path d="M1035 1570 c-3 -6 1 -13 10 -16 14 -6 14 -9 3 -16 -9 -7 -8 -8 5 -4
10 3 24 6 31 6 7 0 21 7 32 15 18 14 18 14 -9 15 -16 0 -26 -4 -22 -10 7 -12
-6 -13 -31 -3 -16 6 -16 7 2 14 16 6 16 8 2 8 -9 1 -20 -4 -23 -9z"/>
<path d="M2247 1547 c-20 -6 -35 -15 -33 -21 3 -6 12 -35 21 -64 22 -69 29
-62 11 9 -8 30 -13 55 -12 56 1 2 15 4 29 5 15 1 27 8 27 15 0 7 -1 12 -2 12
-2 -1 -20 -6 -41 -12z"/>
<path d="M2152 1523 c-26 -3 -32 -8 -28 -20 11 -28 -6 -114 -30 -149 -13 -19
-19 -34 -14 -34 6 0 10 -13 10 -29 0 -17 5 -33 12 -37 8 -5 9 4 4 34 -5 37 -4
42 13 42 11 0 63 14 116 31 73 24 95 36 95 50 0 9 3 24 6 32 5 13 0 13 -30 -1
-20 -9 -36 -21 -36 -28 0 -6 -12 -19 -26 -29 -25 -16 -26 -16 -19 6 6 19 5 21
-11 14 -47 -19 -54 -18 -54 8 0 13 -3 40 -6 58 -4 19 -3 31 1 27 9 -9 45 9 45
22 0 6 -3 9 -7 8 -5 0 -23 -3 -41 -5z m-12 -148 c-16 -42 -21 -26 -7 25 8 30
13 38 15 24 1 -11 -2 -33 -8 -49z m170 41 c0 -2 -7 -7 -16 -10 -8 -3 -12 -2
-9 4 6 10 25 14 25 6z"/>
<path d="M483 1490 c-15 -23 -8 -47 18 -61 11 -5 19 -19 19 -29 0 -12 13 -28
33 -40 30 -19 67 -29 39 -12 -8 6 1 13 30 22 60 19 118 49 118 60 0 6 -4 10
-10 10 -14 0 -124 -53 -131 -63 -11 -16 -41 -3 -63 26 -18 24 -19 30 -7 50 13
20 13 21 -3 8 -25 -21 -46 1 -28 29 7 11 9 20 4 20 -4 0 -13 -9 -19 -20z"/>
<path d="M843 1367 c-13 -18 -37 -49 -55 -68 l-33 -36 -30 17 c-34 20 -34 29
2 79 l27 36 -37 -35 c-24 -22 -37 -42 -35 -54 4 -25 63 -66 92 -65 12 0 15 3
8 6 -15 6 3 33 23 33 11 0 85 98 85 113 0 18 -27 3 -47 -26z"/>
<path d="M2235 1275 c-27 -8 -65 -14 -82 -15 -34 0 -39 -9 -23 -45 8 -19 9
-19 9 3 2 44 33 20 56 -43 26 -68 39 -74 105 -44 22 10 40 14 40 9 0 -4 -21
-16 -47 -26 -54 -20 -82 -38 -37 -25 34 11 98 33 102 36 1 1 -4 17 -11 36 -8
19 -22 55 -31 82 -10 26 -21 47 -24 46 -4 0 -29 -7 -57 -14z m73 -63 c14 -40
8 -56 -25 -71 -24 -11 -63 -7 -63 7 0 4 -7 29 -15 55 -11 35 -11 47 -3 45 7
-3 17 -23 23 -46 13 -52 17 -55 48 -41 25 11 25 12 11 58 -17 57 -17 59 0 41
7 -8 18 -30 24 -48z m-39 11 c14 -49 14 -50 -3 -56 -17 -7 -42 54 -32 78 10
26 25 16 35 -22z"/>
<path d="M1808 1253 c7 -3 16 -2 19 1 4 3 -2 6 -13 5 -11 0 -14 -3 -6 -6z"/>
<path d="M2058 1195 c-3 -3 -4 -28 -1 -55 4 -46 3 -48 -24 -54 -32 -6 -84 -9
-95 -6 -5 1 -14 3 -20 4 -7 1 -12 11 -12 23 2 33 -13 18 -18 -18 l-5 -32 94 5
c51 3 96 8 99 10 2 3 1 33 -3 68 -4 34 -11 59 -15 55z"/>
<path d="M2090 1170 c0 -11 4 -20 8 -20 4 0 8 9 8 20 0 11 -4 20 -8 20 -4 0
-8 -9 -8 -20z"/>
<path d="M2140 1168 c0 -9 -6 -19 -12 -21 -10 -4 -10 -6 0 -6 14 -1 28 26 18
36 -3 4 -6 -1 -6 -9z"/>
<path d="M2155 1131 c-3 -5 -2 -12 3 -15 5 -3 9 1 9 9 0 17 -3 19 -12 6z"/>
<path d="M1850 1085 c-10 -12 -10 -15 2 -15 8 0 15 7 15 15 0 8 -1 15 -2 15
-2 0 -8 -7 -15 -15z"/>
<path d="M2160 1091 c0 -4 14 -8 30 -9 17 -1 30 2 30 6 0 5 -13 9 -30 10 -16
0 -30 -3 -30 -7z"/>
<path d="M2089 1053 c-13 -16 -12 -17 4 -4 16 13 21 21 13 21 -2 0 -10 -8 -17
-17z"/>
<path d="M2120 1056 c0 -2 8 -10 18 -17 15 -13 16 -12 3 4 -13 16 -21 21 -21
13z"/>
<path d="M2171 1032 c-9 -17 -7 -18 15 -14 14 2 23 9 21 15 -6 19 -25 19 -36
-1z"/>
<path d="M2300 1025 c13 -14 25 -25 27 -25 9 0 -33 49 -41 50 -5 0 1 -11 14
-25z"/>
<path d="M1630 1013 c-22 -23 -23 -25 -4 -15 12 6 24 18 28 27 7 20 5 19 -24
-12z"/>
<path d="M2065 1015 c0 -13 3 -21 8 -18 4 2 7 10 7 18 0 8 -3 16 -7 18 -5 3
-8 -5 -8 -18z"/>
<path d="M2010 1019 c0 -5 5 -7 10 -4 6 3 10 8 10 11 0 2 -4 4 -10 4 -5 0 -10
-5 -10 -11z"/>
<path d="M2035 1000 c-16 -17 -16 -20 -3 -15 9 4 19 13 22 21 7 19 2 18 -19
-6z"/>
<path d="M2235 1010 c-3 -5 -1 -10 4 -10 6 0 11 5 11 10 0 6 -2 10 -4 10 -3 0
-8 -4 -11 -10z"/>
<path d="M1838 998 c5 -5 16 -8 23 -6 8 3 3 7 -10 11 -17 4 -21 3 -13 -5z"/>
<path d="M1712 970 c0 -14 2 -19 5 -12 2 6 2 18 0 25 -3 6 -5 1 -5 -13z"/>
<path d="M2330 974 c0 -10 5 -26 10 -34 8 -11 9 -7 4 15 -8 37 -14 45 -14 19z"/>
<path d="M1600 955 c0 -5 5 -17 10 -25 5 -8 10 -10 10 -5 0 6 -5 17 -10 25 -5
8 -10 11 -10 5z"/>
<path d="M1640 933 c8 -13 20 -19 29 -15 13 5 13 6 0 10 -7 3 -20 10 -28 16
-12 9 -12 8 -1 -11z"/>
<path d="M2311 916 c-8 -10 -9 -16 -1 -21 6 -4 9 -1 8 7 -2 7 3 12 10 10 8 -1
11 2 7 8 -8 13 -10 13 -24 -4z"/>
<path d="M1600 871 c0 -7 -5 -9 -12 -5 -7 5 -8 3 -3 -5 5 -9 10 -10 18 -2 6 6
8 14 4 18 -4 3 -7 1 -7 -6z"/>
<path d="M2210 870 c-9 -6 -10 -10 -3 -10 6 0 15 5 18 10 8 12 4 12 -15 0z"/>
<path d="M2300 870 c-9 -6 -10 -10 -3 -10 6 0 15 5 18 10 8 12 4 12 -15 0z"/>
<path d="M2350 855 c13 -14 26 -25 28 -25 3 0 -5 11 -18 25 -13 14 -26 25 -28
25 -3 0 5 -11 18 -25z"/>
<path d="M1670 855 c0 -8 61 -36 70 -33 5 2 -9 11 -30 20 -22 9 -40 15 -40 13z"/>
<path d="M2198 823 c7 -3 16 -2 19 1 4 3 -2 6 -13 5 -11 0 -14 -3 -6 -6z"/>
<path d="M1582 800 c0 -14 2 -19 5 -12 2 6 2 18 0 25 -3 6 -5 1 -5 -13z"/>
<path d="M2110 810 c-9 -6 -10 -10 -3 -10 6 0 15 5 18 10 8 12 4 12 -15 0z"/>
<path d="M2392 770 c0 -14 2 -19 5 -12 2 6 2 18 0 25 -3 6 -5 1 -5 -13z"/>
<path d="M2150 769 c0 -5 5 -7 10 -4 6 3 10 8 10 11 0 2 -4 4 -10 4 -5 0 -10
-5 -10 -11z"/>
<path d="M1652 704 c10 -10 20 -16 22 -13 3 3 -5 11 -17 18 -21 13 -21 12 -5
-5z"/>
<path d="M1610 675 c23 -19 47 -35 53 -35 7 0 -1 8 -18 18 -16 11 -36 26 -44
35 -7 10 -18 17 -23 17 -6 0 9 -16 32 -35z"/>
<path d="M2089 683 l-24 -28 28 24 c25 23 32 31 24 31 -2 0 -14 -12 -28 -27z"/>
<path d="M1698 678 c5 -5 16 -8 23 -6 8 3 3 7 -10 11 -17 4 -21 3 -13 -5z"/>
<path d="M2315 680 c-3 -5 -1 -10 4 -10 6 0 11 5 11 10 0 6 -2 10 -4 10 -3 0
-8 -4 -11 -10z"/>
<path d="M2355 665 c-39 -32 -29 -32 15 0 19 14 30 25 24 25 -5 -1 -22 -12
-39 -25z"/>
<path d="M2430 655 c13 -14 26 -25 28 -25 3 0 -5 11 -18 25 -13 14 -26 25 -28
25 -3 0 5 -11 18 -25z"/>
<path d="M1748 663 c7 -3 16 -2 19 1 4 3 -2 6 -13 5 -11 0 -14 -3 -6 -6z"/>
<path d="M2230 650 c-18 -12 -2 -12 25 0 13 6 15 9 5 9 -8 0 -22 -4 -30 -9z"/>
<path d="M1818 643 c7 -3 16 -2 19 1 4 3 -2 6 -13 5 -11 0 -14 -3 -6 -6z"/>
<path d="M1700 627 c27 -15 80 -30 80 -23 0 3 -15 9 -32 14 -18 6 -42 13 -53
17 -12 4 -10 1 5 -8z"/>
<path d="M2113 633 c9 -2 25 -2 35 0 9 3 1 5 -18 5 -19 0 -27 -2 -17 -5z"/>
<path d="M2255 619 c-40 -15 -43 -18 -15 -13 19 4 46 12 60 20 34 18 15 15
-45 -7z"/>
<path d="M2028 623 c6 -2 18 -2 25 0 6 3 1 5 -13 5 -14 0 -19 -2 -12 -5z"/>
<path d="M1798 593 c7 -3 16 -2 19 1 4 3 -2 6 -13 5 -11 0 -14 -3 -6 -6z"/>
<path d="M2178 593 c7 -3 16 -2 19 1 4 3 -2 6 -13 5 -11 0 -14 -3 -6 -6z"/>
<path d="M2476 544 c0 -30 2 -56 5 -58 8 -8 9 89 2 101 -5 6 -8 -13 -7 -43z"/>
<path d="M1835 585 c24 -8 116 -12 103 -4 -7 5 -35 8 -63 8 -27 0 -45 -2 -40
-4z"/>
<path d="M2010 580 c-16 -5 -2 -6 35 -3 33 3 62 7 64 9 8 7 -74 2 -99 -6z"/>
<path d="M2128 583 c6 -2 18 -2 25 0 6 3 1 5 -13 5 -14 0 -19 -2 -12 -5z"/>
<path d="M1510 523 c0 -7 10 -22 23 -35 12 -13 17 -17 11 -8 -6 8 -16 24 -22
35 -6 11 -12 15 -12 8z"/>
<path d="M1898 493 c18 -2 45 -2 60 0 15 2 0 4 -33 4 -33 0 -45 -2 -27 -4z"/>
<path d="M2405 429 c-34 -21 -29 -25 10 -7 14 6 25 15 25 20 0 10 1 10 -35
-13z"/>
<path d="M1918 353 c7 -3 16 -2 19 1 4 3 -2 6 -13 5 -11 0 -14 -3 -6 -6z"/>
<path d="M2128 243 c7 -3 16 -2 19 1 4 3 -2 6 -13 5 -11 0 -14 -3 -6 -6z"/>
</g>
</svg>
