<?xml version="1.0" standalone="no"?>
<!DOCTYPE svg PUBLIC "-//W3C//DTD SVG 20010904//EN"
 "http://www.w3.org/TR/2001/REC-SVG-20010904/DTD/svg10.dtd">
<svg version="1.0" xmlns="http://www.w3.org/2000/svg"
 width="45.000000pt" height="35.000000pt" viewBox="0 0 110.000000 97.000000"
 preserveAspectRatio="xMidYMid meet">
<metadata>
Created by potrace 1.10, written by Peter Selinger 2001-2011
</metadata>
<g transform="translate(0.000000,97.000000) scale(0.100000,-0.100000)"
fill="#000000" stroke="none">
<path d="M444 875 c-17 -8 -36 -21 -43 -29 -8 -9 -24 -16 -36 -16 -13 0 -36
-6 -52 -14 -15 -7 -46 -22 -67 -32 -22 -11 -49 -31 -60 -47 -25 -34 -38 -141
-19 -165 10 -14 11 -11 7 23 l-4 40 12 -39 c7 -21 21 -42 30 -45 15 -5 10 -18
-33 -86 -53 -86 -63 -137 -32 -160 16 -12 15 -13 -8 -8 -20 4 -25 0 -26 -18
-1 -13 3 -29 9 -36 13 -17 48 -17 49 0 1 6 4 1 8 -13 9 -29 4 -41 -8 -21 -5 8
-11 9 -14 4 -12 -20 75 -77 128 -85 74 -10 108 -19 125 -33 22 -18 78 -35 115
-35 26 0 78 20 155 59 8 4 31 6 50 4 28 -4 46 2 85 30 33 23 49 40 47 52 -2
12 1 16 11 12 17 -6 30 15 32 51 1 15 -3 21 -13 17 -7 -3 -17 -5 -20 -5 -4 0
-1 -4 5 -8 10 -7 10 -12 -1 -27 -13 -19 -14 -18 -13 10 1 17 11 37 21 46 17
14 18 20 8 62 -7 26 -30 75 -52 109 -37 58 -38 63 -20 70 11 4 24 22 29 40
l11 33 -3 -32 c-3 -26 -1 -30 10 -22 21 18 16 99 -9 149 -20 39 -34 50 -98 82
-41 20 -80 35 -87 33 -6 -2 -17 3 -25 12 -37 46 -142 65 -204 38z m81 -15 c-3
-5 3 -10 14 -10 10 0 27 -3 37 -7 12 -5 15 -3 9 6 -10 17 31 -3 60 -29 11 -10
45 -25 76 -34 31 -8 68 -25 83 -37 28 -22 56 -69 55 -91 0 -7 -4 -4 -9 7 -6
15 -9 8 -9 -27 -1 -26 -6 -50 -11 -53 -6 -4 -8 -11 -5 -16 4 -5 -3 -8 -14 -6
-30 5 -35 14 -12 22 27 8 16 35 -14 33 -20 -2 -22 -6 -18 -43 5 -41 49 -141
67 -152 5 -4 7 1 3 10 -9 24 0 21 14 -4 8 -15 8 -19 0 -15 -13 9 -15 -6 -2
-20 13 -13 31 -85 20 -79 -5 4 -9 1 -9 -5 0 -6 -4 -9 -9 -6 -4 3 -6 -6 -3 -20
6 -31 -13 -47 -46 -39 -17 4 -34 -6 -72 -41 l-50 -47 -26 24 c-26 23 -26 23
-20 2 4 -12 2 -24 -4 -28 -5 -3 -10 -11 -10 -17 0 -6 8 -4 18 5 23 21 32 21
32 0 0 -9 -3 -13 -7 -10 -3 4 -15 -1 -26 -10 -29 -27 -198 -28 -231 -2 -13 11
-42 21 -65 24 -22 3 -52 10 -66 15 -33 13 -38 13 -29 -1 4 -8 0 -8 -15 0 -25
14 -28 23 -3 14 14 -6 15 -4 5 9 -7 8 -10 17 -7 20 3 3 1 9 -5 13 -6 3 -11 -1
-11 -9 0 -23 -15 -19 -17 4 -1 11 7 24 17 30 15 8 28 1 73 -40 36 -33 60 -48
71 -44 8 3 27 -3 41 -14 15 -12 33 -18 43 -15 12 5 10 8 -12 14 -41 11 -59 29
-45 45 7 9 7 14 1 14 -5 0 -15 -7 -22 -15 -18 -21 -21 -20 -74 31 -31 29 -53
43 -63 39 -9 -3 -25 -3 -35 1 -16 5 -19 12 -14 36 3 18 2 27 -4 23 -6 -3 -10
-1 -10 5 0 6 -4 8 -10 5 -5 -3 -1 15 10 40 23 54 24 59 8 49 -7 -4 -8 -3 -4 5
4 6 11 9 16 6 4 -3 15 6 24 20 19 28 20 39 5 29 -8 -4 -8 0 0 15 13 24 23 28
15 6 -9 -22 4 -18 16 6 16 29 29 118 18 121 -5 2 0 15 11 30 12 14 21 33 21
42 0 10 6 13 16 9 12 -4 14 0 8 23 -9 37 -14 43 -14 15 0 -12 -7 -24 -15 -27
-10 -4 -13 -13 -10 -24 3 -10 1 -21 -5 -25 -7 -4 -10 -1 -9 6 4 23 -12 48 -26
43 -7 -3 -11 -14 -8 -25 4 -15 8 -17 13 -8 5 7 7 0 7 -17 -1 -16 -11 -36 -21
-45 -20 -16 -20 -16 2 -23 26 -9 30 -28 5 -24 -47 8 -58 99 -18 146 13 16 22
32 18 35 -8 8 65 39 79 35 6 -2 -8 -10 -32 -17 -23 -7 -40 -14 -37 -17 2 -2
17 0 33 6 15 6 43 10 60 8 25 -2 37 4 58 28 14 17 24 33 21 35 -2 3 4 5 13 6
46 5 81 16 76 24 -3 5 2 9 11 9 9 0 13 -4 10 -10z m-147 -62 c-5 -16 -48 -24
-48 -9 0 8 17 16 43 20 5 0 7 -5 5 -11z m437 -308 c9 -16 13 -30 11 -30 -3 0
-12 14 -21 30 -9 17 -13 30 -11 30 3 0 12 -13 21 -30z m-661 -226 c10 -25 -1
-29 -14 -5 -6 12 -7 21 -1 21 5 0 12 -7 15 -16z m672 -60 c-3 -9 -2 -12 5 -9
6 4 8 13 5 21 -3 7 -1 16 4 19 6 4 10 -3 10 -13 0 -11 -17 -32 -37 -48 -20
-15 -33 -22 -28 -14 6 10 4 12 -11 5 -31 -13 -74 -18 -73 -9 0 5 21 26 45 46
38 32 49 36 65 27 12 -6 18 -17 15 -25z"/>
<path d="M610 820 c22 -17 23 -19 7 -25 -9 -4 -17 -12 -17 -18 0 -5 9 -2 20 8
19 17 20 17 35 -18 8 -20 15 -43 15 -52 0 -8 5 -15 10 -15 13 0 13 16 0 41
-10 17 -7 19 25 19 39 0 115 -34 115 -51 0 -6 -7 -9 -15 -5 -8 3 -19 -3 -25
-14 -12 -21 -13 -40 -2 -25 12 17 52 36 52 25 0 -5 -4 -10 -8 -10 -4 0 -8 -10
-9 -22 -2 -21 0 -20 13 5 14 26 14 31 -1 54 -19 28 -75 55 -123 58 -22 2 -45
13 -66 34 -17 17 -36 31 -41 31 -6 0 1 -9 15 -20z"/>
<path d="M415 790 c3 -5 11 -10 16 -10 6 0 7 5 4 10 -3 6 -11 10 -16 10 -6 0
-7 -4 -4 -10z"/>
<path d="M507 773 c-4 -3 -7 -11 -7 -17 0 -6 5 -5 12 2 6 6 9 14 7 17 -3 3 -9
2 -12 -2z"/>
<path d="M473 745 c0 -13 4 -22 9 -19 5 3 15 0 23 -6 11 -9 15 -9 15 -1 0 6
-4 11 -9 11 -5 0 -13 9 -16 20 -9 28 -22 25 -22 -5z"/>
<path d="M543 758 c-28 -14 -29 -24 -4 -38 27 -14 28 -14 29 20 0 17 0 30 -1
29 -1 0 -12 -5 -24 -11z"/>
<path d="M350 735 c0 -8 2 -15 4 -15 2 0 6 7 10 15 3 8 1 15 -4 15 -6 0 -10
-7 -10 -15z"/>
<path d="M720 714 c0 -14 4 -23 10 -19 6 3 10 15 10 26 0 10 -4 19 -10 19 -5
0 -10 -12 -10 -26z"/>
<path d="M472 700 c-28 -26 -28 -27 8 -26 30 1 36 11 22 34 -6 9 -14 7 -30 -8z"/>
<path d="M520 702 c0 -8 43 -32 55 -32 15 0 1 19 -20 28 -31 14 -35 15 -35 4z"/>
<path d="M747 703 c-8 -13 18 -73 32 -73 5 0 12 7 15 16 9 24 7 28 -9 14 -16
-13 -20 -8 -27 35 -2 14 -6 16 -11 8z"/>
<path d="M210 660 c0 -5 5 -10 10 -10 6 0 10 5 10 10 0 6 -4 10 -10 10 -5 0
-10 -4 -10 -10z"/>
<path d="M558 483 c-6 -28 3 -133 12 -133 14 0 16 91 2 102 -10 9 -10 13 -1
19 22 13 36 -21 31 -72 -3 -33 -1 -49 7 -49 6 0 11 14 11 31 0 38 16 69 36 69
12 0 15 -10 12 -47 -3 -41 0 -48 17 -50 11 -1 15 0 9 3 -7 3 -10 21 -7 47 6
52 -16 79 -48 59 -13 -8 -19 -9 -19 -1 0 5 -4 8 -9 4 -5 -3 -12 4 -16 15 -8
25 -31 26 -37 3z"/>
<path d="M256 445 c-21 -52 -14 -83 20 -91 41 -10 76 38 39 53 -22 8 -30 -4
-15 -22 10 -13 9 -15 -9 -15 -30 0 -34 18 -17 68 20 56 5 62 -18 7z"/>
<path d="M477 444 c-21 -59 -21 -59 -1 -78 20 -20 60 -21 68 -1 6 17 -2 45
-13 45 -15 0 -21 -14 -10 -26 15 -18 -5 -26 -26 -10 -15 11 -16 17 -6 49 19
57 8 76 -12 21z"/>
<path d="M382 442 c-10 -17 -23 -27 -32 -25 -12 3 -11 1 2 -10 16 -13 16 -15
-5 -35 -18 -19 -19 -22 -5 -22 10 0 22 9 28 20 14 27 46 26 53 -2 4 -12 10
-19 14 -14 10 10 10 39 0 47 -5 3 -9 20 -9 37 -1 40 -22 42 -46 4z m28 -17 c0
-16 -6 -25 -15 -25 -18 0 -18 5 -5 31 14 26 20 24 20 -6z"/>
<path d="M725 456 c-12 -8 -16 -19 -11 -31 3 -10 1 -24 -5 -31 -16 -20 6 -44
41 -44 31 0 46 23 26 39 -16 13 -27 4 -19 -16 4 -11 2 -14 -8 -11 -19 6 -23
88 -3 88 8 0 11 -6 8 -15 -7 -17 11 -21 21 -5 7 11 -11 40 -24 40 -4 0 -16 -6
-26 -14z"/>
<path d="M171 346 c-10 -11 -9 -14 1 -12 14 2 23 15 15 22 -2 2 -10 -2 -16
-10z"/>
<path d="M830 337 c0 -8 7 -14 15 -14 11 0 12 4 4 14 -6 7 -13 13 -15 13 -2 0
-4 -6 -4 -13z"/>
<path d="M477 218 c-13 -38 66 -103 111 -91 33 8 27 20 -8 15 -18 -3 -30 0
-30 7 0 6 10 11 23 11 l22 1 -23 12 c-12 7 -29 23 -38 35 -16 24 -50 30 -57
10z m50 -30 c15 -3 15 -4 0 -17 -15 -12 -18 -10 -26 10 -5 13 -6 29 -3 34 4 6
8 2 10 -7 2 -9 10 -18 19 -20z"/>
<path d="M420 159 c0 -5 5 -7 10 -4 6 3 10 8 10 11 0 2 -4 4 -10 4 -5 0 -10
-5 -10 -11z"/>
<path d="M800 210 c-8 -26 -7 -41 2 -32 6 6 8 16 5 24 -3 7 -6 11 -7 8z"/>
</g>
</svg>
