<?xml version="1.0" standalone="no"?>
<!DOCTYPE svg PUBLIC "-//W3C//DTD SVG 20010904//EN"
 "http://www.w3.org/TR/2001/REC-SVG-20010904/DTD/svg10.dtd">
<svg version="1.0" xmlns="http://www.w3.org/2000/svg"
 width="78.000000pt" height="45.000000pt" viewBox="0 0 78.000000 45.000000"
 preserveAspectRatio="xMidYMid meet">
<metadata>
Created by potrace 1.10, written by Peter Selinger 2001-2011
</metadata>
<g transform="translate(0.000000,45.000000) scale(0.100000,-0.100000)"
fill="#000000" stroke="none">
<path d="M143 348 c-43 -31 -63 -68 -63 -118 0 -80 57 -138 139 -141 41 -2 60
4 101 29 l51 32 31 -30 c17 -17 36 -30 42 -31 6 0 20 -2 30 -4 11 -2 37 2 58
10 21 7 41 9 44 4 9 -15 51 -10 65 7 10 12 10 22 1 48 -7 18 -12 48 -12 66 0
47 -34 112 -69 133 -16 10 -50 17 -76 17 -43 0 -52 -4 -91 -44 l-44 -43 -15
24 c-41 62 -134 82 -192 41z m144 -23 c29 -19 48 -58 39 -80 -9 -24 -119 -18
-124 7 -3 14 6 17 45 20 l48 3 -33 18 c-36 20 -82 16 -102 -8 -40 -49 -8 -135
52 -135 54 0 98 30 155 107 30 41 66 78 79 84 40 15 79 11 108 -12 35 -28 47
-52 56 -118 5 -31 11 -66 15 -78 6 -19 4 -23 -13 -23 -12 0 -22 9 -25 22 -6
22 -6 22 -28 2 -32 -29 -110 -26 -143 5 -46 44 -26 70 24 31 70 -55 157 20
116 99 -35 66 -110 47 -161 -42 -40 -67 -98 -108 -164 -115 -49 -4 -53 -3 -91
36 -32 32 -40 47 -40 77 0 99 103 155 187 100z m239 -59 c39 -40 -3 -103 -56
-84 -35 12 -58 37 -43 46 5 4 15 16 21 27 12 25 58 31 78 11z m-275 -57 c50 3
45 -13 -9 -28 -25 -8 -36 -6 -56 10 -20 16 -23 26 -17 58 1 2 9 -7 20 -20 15
-19 27 -23 62 -20z"/>
</g>
</svg>
