<?xml version="1.0" standalone="no"?>
<!DOCTYPE svg PUBLIC "-//W3C//DTD SVG 20010904//EN"
 "http://www.w3.org/TR/2001/REC-SVG-20010904/DTD/svg10.dtd">
<svg version="1.0" xmlns="http://www.w3.org/2000/svg"
 width="100.000000pt" height="40.000000pt" viewBox="0 0 234.000000 135.000000"
 preserveAspectRatio="xMidYMid meet">
<metadata>
Created by potrace 1.10, written by Peter Selinger 2001-2011
</metadata>
<g transform="translate(0.000000,135.000000) scale(0.100000,-0.100000)"
fill="#32dcf1" stroke="none">
<path d="M580 1120 c-129 -14 -272 -121 -332 -250 -27 -56 -32 -80 -36 -169
-4 -95 -2 -109 24 -175 47 -120 167 -240 274 -272 83 -25 229 -21 326 9 39 12
97 44 189 104 27 18 59 33 70 33 11 0 37 -16 58 -36 137 -130 292 -164 474
-103 l64 21 54 -22 c74 -30 111 -22 164 35 22 24 43 55 46 68 4 14 -2 58 -14
98 -11 41 -25 128 -32 194 -15 155 -53 253 -133 336 -108 112 -199 147 -356
136 -107 -7 -171 -39 -273 -138 -45 -43 -87 -79 -92 -79 -6 0 -21 10 -35 23
-116 107 -142 126 -211 154 -81 33 -144 43 -229 33z m160 -98 c77 -25 110 -44
159 -94 56 -57 95 -139 86 -184 -10 -55 -40 -64 -214 -64 -149 0 -150 0 -170
26 -21 26 -20 66 1 89 5 6 57 9 124 7 105 -2 115 -1 112 15 -6 32 -140 103
-194 103 -36 0 -123 -36 -154 -64 -17 -14 -42 -52 -55 -83 -51 -114 -21 -218
88 -298 48 -36 155 -47 205 -21 17 9 39 16 48 16 22 0 120 60 165 102 40 37
145 174 175 228 47 86 162 210 194 210 9 0 25 7 36 15 31 23 190 20 247 -5 75
-33 197 -167 197 -217 0 -13 7 -40 15 -60 10 -23 15 -69 15 -131 0 -88 2 -100
36 -170 40 -84 37 -116 -12 -128 -49 -12 -75 6 -94 64 -25 75 -33 80 -60 37
-35 -57 -128 -95 -232 -95 -70 0 -89 4 -144 31 -123 61 -190 165 -130 204 29
19 48 12 104 -36 92 -80 171 -98 257 -59 85 39 145 127 145 212 0 82 -66 191
-135 224 -34 16 -94 15 -172 -1 -42 -9 -115 -74 -142 -126 -79 -150 -213 -305
-321 -370 -30 -18 -57 -36 -60 -40 -12 -16 -100 -32 -199 -36 -103 -4 -155 6
-198 40 -60 47 -117 112 -143 163 -27 53 -30 68 -30 155 0 106 8 131 69 212
43 57 118 114 175 132 59 19 143 17 206 -3z m762 -233 c30 -8 42 -19 58 -51
25 -52 25 -84 0 -125 -22 -37 -53 -58 -95 -67 -38 -8 -130 36 -158 76 -20 26
-20 27 3 65 33 55 61 84 95 99 37 16 50 17 97 3z m-913 -168 c21 -17 53 -30
79 -34 71 -9 70 -31 -2 -41 -55 -9 -98 11 -126 56 -33 54 -8 64 49 19z"/>
</g>
</svg>
