<svg xmlns="http://www.w3.org/2000/svg" xmlns:xlink="http://www.w3.org/1999/xlink" width="70.707" height="20.78" viewBox="0 0 159.707 38.78"><defs><style>.a{fill:url(#a);}.b{fill:url(#b);}.c{fill:url(#c);}.d{fill:url(#d);}.e{fill:url(#e);}</style><linearGradient id="a" x1="2.428" y1="0.799" x2="-7.027" y2="-0.586" gradientUnits="objectBoundingBox"><stop offset="0.083" stop-color="#1afffc"/><stop offset="1" stop-color="#007fff"/></linearGradient><linearGradient id="b" x1="2.548" y1="1.667" x2="0.081" y2="0.27" xlink:href="#a"/><linearGradient id="c" x1="2.469" y1="1" x2="-3.049" y2="-0.401" xlink:href="#a"/><linearGradient id="d" x1="3.703" y1="1.038" x2="-2.067" y2="0.013" xlink:href="#a"/><linearGradient id="e" x1="10.683" y1="1.63" x2="1.186" y2="0.607" xlink:href="#a"/></defs><g transform="translate(0 0)"><path class="a" d="M561.492,616.189a2.5,2.5,0,0,1-.8-1.957l-.107-10.937q-.054-3.7-.054-9.221v-3.163a2.5,2.5,0,0,1,.751-1.93,2.582,2.582,0,0,1,1.823-.7,2.886,2.886,0,0,1,1.957.724,2.525,2.525,0,0,1,.831,2.01v1.608a5.005,5.005,0,0,1,2.2-2.2,9.1,9.1,0,0,1,4.825-1.34,5.986,5.986,0,0,1,3.055.643,2.465,2.465,0,0,1,1.072,2.305,2.6,2.6,0,0,1-.643,1.8,2.379,2.379,0,0,1-1.876.724q-4.5,0-6.219,1.233a7.379,7.379,0,0,0-1.689,1.555,2.878,2.878,0,0,0-.724,1.769l.108,6.7.053,8.417a2.5,2.5,0,0,1-.8,1.957,2.794,2.794,0,0,1-3.753,0Z" transform="translate(-417.333 -578.164)"/><path class="b" d="M357.221,611.714a14.42,14.42,0,0,1-1.155-5.783c0-.077,0-.153,0-.23-.038-2.923-.167-6.121-1.433-8.807a14.122,14.122,0,0,0-5.961-6.368q-.354-.193-.719-.363a13.619,13.619,0,0,0-1.752-.677,14.536,14.536,0,0,0-11.146,1.234c-4.073,2.2-6.058,6.5-8.5,10.195a28.4,28.4,0,0,1-9.933,9.628,13.6,13.6,0,0,1-1.292.628,17.779,17.779,0,0,1-3.817,1.075,16.26,16.26,0,0,1-3.316.092,11.828,11.828,0,0,1-2.57-.7,9.234,9.234,0,0,1-5.532-7.258,9.367,9.367,0,0,1,14.387-9.178,5.985,5.985,0,0,1,1.05.8,18.326,18.326,0,0,1,1.565,1.76c.138.224.3.225-.506.225H309.88a2.473,2.473,0,0,0-1.695.7,2.4,2.4,0,0,0,1.695,4.091h3.434c.792,0,1.58-.027,2.371-.017q1.425.02,2.851.018c1.243,0,2.564.06,3.554-.844,2.009-1.833.488-4.81-.806-6.576a15.8,15.8,0,0,0-6.764-5.319l-.087-.035a13.989,13.989,0,0,0-9.84-.184,14.151,14.151,0,0,0-7.021,20.935,14.739,14.739,0,0,0,13.236,6.354c9.717-.643,16.464-8.072,21.169-15.874,1.355-2.246,2.669-4.968,5.226-6.328a10.3,10.3,0,0,1,8.094-.617,8.957,8.957,0,0,1,2.513,1.418,9.689,9.689,0,0,1,1.328,13.281,9.453,9.453,0,0,1-10.093,3.126,10.1,10.1,0,0,1-3.932-2.374c-1.079-.994-2.1-2.679-3.809-2.087a2.4,2.4,0,0,0-1.252,2.69,4.881,4.881,0,0,0,1.643,2.307,14.846,14.846,0,0,0,2.582,2.088,14.081,14.081,0,0,0,12.591,1.332c1.885-.7,4.568-2.024,5.522-3.919a14.948,14.948,0,0,0,1.191,2.943c.746,1.31,1.073,1.794,1.869,2.063a2.485,2.485,0,0,0,3.126-1.706C358.844,613.965,357.744,613,357.221,611.714Zm-39.9-14.11-.226-.293C317.179,597.423,317.261,597.52,317.318,597.6Z" transform="translate(-279.596 -578.477)"/><path class="c" d="M521.125,608.224a2.143,2.143,0,0,0-2.887-.347c-.877.642-1.323,1.367-2.721,2.384a8.793,8.793,0,0,1-3.7,1.595,13.683,13.683,0,0,1-3.061.119,11.935,11.935,0,0,1-2.6-.711,9.327,9.327,0,0,1-5.587-7.332,9.461,9.461,0,0,1,14.532-9.271,6.072,6.072,0,0,1,1.061.8,18.394,18.394,0,0,1,1.581,1.778c.139.226.3.227-.511.227h-6.774a2.5,2.5,0,0,0-1.711.709,2.421,2.421,0,0,0,1.711,4.132h3.468c.8,0,1.6-.027,2.4-.017q1.44.02,2.879.018c1.309,0,3.066.456,4.128-.6,1.413-1.4.277-3.634-.431-5.088a15.475,15.475,0,0,0-3.139-4.373,12.481,12.481,0,0,0-5.211-3.15l-.061-.021q-.162-.053-.324-.1a13.975,13.975,0,0,0-8.134-.115,13.794,13.794,0,0,0-3.879,1.8,16.276,16.276,0,0,0-3.931,3.891,15.3,15.3,0,0,0-2.188,5.141,13.981,13.981,0,0,0-.06,5.706,10.476,10.476,0,0,0,.589,2.162,14.439,14.439,0,0,0,11.563,8.947,14.277,14.277,0,0,0,10.846-3.2q.342-.29.67-.6S522.58,610.342,521.125,608.224Zm-3.152-11.132-.229-.3C517.832,596.91,517.916,597.009,517.974,597.092Z" transform="translate(-383.668 -578.18)"/><path class="d" d="M454.444,605.391a2.221,2.221,0,0,1-.918-1.614c.091.461-2.077,1.208-2.412,1.337a14.091,14.091,0,0,1-17.888-6.574,14.311,14.311,0,0,1,.641-14.264,13.993,13.993,0,0,1,2.913-3.3,14.45,14.45,0,0,1,11.621-2.966,20.038,20.038,0,0,1,4.864,1.9l-.322-9.69a2.678,2.678,0,0,1,.777-1.93,2.515,2.515,0,0,1,1.876-.8,2.65,2.65,0,0,1,1.9.777,2.486,2.486,0,0,1,.8,1.85q.375,24.446.375,33.078A2.654,2.654,0,0,1,456,605.874,2.668,2.668,0,0,1,454.444,605.391Zm-4.107-5.521.11-.066a6.643,6.643,0,0,0,2.817-3.312q0-6.807-.107-10.829a.109.109,0,0,1-.107-.053c-1.479-3.2-6.342-3.906-9.522-2.947-3.341,1.007-6.026,4.694-6.322,8.125a9.445,9.445,0,0,0,1.736,6.584C441.575,600.656,446.6,602.092,450.338,599.87Z" transform="translate(-350.384 -567.364)"/><path class="e" d="M265.709,605.881a2.676,2.676,0,0,1-1.766-.776,2.574,2.574,0,0,1-.8-1.794,2.444,2.444,0,0,1-.053-.482q-.054-3.051-.268-14.4t-.214-18.523a2.677,2.677,0,1,1,5.353,0q0,5.408.08,10.386t.214,10.948q.133,5.97.134,9.342c1.855.036-.908.018,2.929-.053s3.107-.089,5.106-.054a2.457,2.457,0,0,1,1.874.8,2.726,2.726,0,0,1,.75,1.927,2.456,2.456,0,0,1-.8,1.874,2.723,2.723,0,0,1-1.927.749c-1.927-.035-1.6,0-6.311.107A22.772,22.772,0,0,1,265.709,605.881Z" transform="translate(-262.604 -567.229)"/></g></svg>