<?xml version="1.0" standalone="no"?>
<!DOCTYPE svg PUBLIC "-//W3C//DTD SVG 20010904//EN"
 "http://www.w3.org/TR/2001/REC-SVG-20010904/DTD/svg10.dtd">
<svg version="1.0" xmlns="http://www.w3.org/2000/svg"
 width="200.000000pt" height="200.000000pt" viewBox="0 0 200.000000 200.000000"
 preserveAspectRatio="xMidYMid meet">
<metadata>
Created by potrace 1.10, written by Peter Selinger 2001-2011
</metadata>
<g transform="translate(0.000000,200.000000) scale(0.100000,-0.100000)"
fill="#000000" stroke="none">
<path d="M980 1729 c-91 -3 -176 -9 -190 -14 -53 -17 -141 -90 -166 -137 -8
-15 -32 -37 -54 -48 -72 -37 -80 -67 -80 -298 0 -165 3 -202 15 -212 12 -10
18 -10 30 0 12 10 15 37 15 119 0 117 13 159 67 218 60 67 90 72 376 73 l257
1 50 -27 c96 -52 129 -120 130 -270 0 -78 4 -104 15 -114 12 -10 18 -10 30 0
12 10 15 47 15 216 0 182 -2 210 -22 270 -38 115 -150 207 -273 223 -27 3
-124 3 -215 0z m302 -41 c74 -34 141 -103 167 -173 18 -47 20 -79 21 -267 1
-129 -2 -214 -8 -216 -6 -2 -11 43 -14 110 -4 130 -18 169 -83 234 -68 67
-102 74 -375 74 -260 0 -296 -6 -361 -59 -19 -16 -48 -53 -64 -82 -27 -49 -30
-65 -33 -167 -3 -67 -8 -112 -14 -110 -6 2 -9 83 -8 207 1 230 6 249 68 276
24 11 46 31 57 52 35 64 123 125 208 143 23 5 119 8 212 6 159 -2 174 -4 227
-28z"/>
<path d="M715 1381 c-22 -10 -54 -34 -72 -52 -53 -56 -63 -101 -63 -280 0
-144 2 -166 25 -232 33 -94 67 -141 143 -199 81 -61 181 -93 268 -85 172 16
313 130 364 294 16 53 20 93 20 221 0 175 -11 222 -64 281 -61 66 -83 71 -346
71 -208 0 -240 -3 -275 -19z m582 -37 c21 -16 48 -50 61 -75 22 -42 23 -52 20
-234 -3 -190 -3 -190 -35 -257 -40 -85 -106 -151 -191 -191 -61 -29 -76 -32
-162 -32 -86 0 -101 3 -162 32 -85 40 -151 106 -191 191 -32 67 -32 68 -35
251 -4 203 4 244 56 294 60 57 65 58 344 55 l256 -3 39 -31z"/>
<path d="M792 507 c-12 -13 -22 -31 -22 -41 0 -38 42 -93 96 -126 94 -57 195
-51 274 17 70 60 87 114 48 151 -22 20 -26 20 -83 6 -78 -18 -179 -18 -241 1
-27 8 -49 15 -50 15 0 0 -10 -10 -22 -23z m93 -12 c78 -19 143 -19 218 1 58
15 61 15 80 -5 18 -17 18 -23 8 -49 -29 -70 -114 -122 -201 -122 -85 0 -161
45 -195 116 -16 34 -16 37 1 55 20 22 13 22 89 4z"/>
<path d="M602 447 c-77 -25 -145 -82 -187 -159 -28 -50 -30 -61 -31 -173 l-2
-120 8 101 c4 55 15 124 24 152 33 98 138 182 248 197 46 7 47 7 66 -31 39
-77 121 -142 200 -159 l32 -7 0 -78 c0 -60 3 -79 15 -84 36 -13 45 4 45 84 l0
78 33 7 c81 18 157 75 193 147 l25 49 47 -6 c112 -15 215 -97 248 -197 9 -28
20 -97 24 -152 l8 -101 -2 120 c-2 108 -5 125 -28 170 -49 94 -137 157 -242
174 -55 9 -59 7 -105 -70 -32 -52 -104 -104 -159 -114 -56 -10 -62 -20 -62
-96 0 -37 -4 -71 -10 -74 -6 -4 -10 21 -10 68 0 84 -3 88 -73 107 -56 15 -129
76 -157 131 -32 61 -53 66 -148 36z"/>
</g>
</svg>
