<?xml version="1.0" standalone="no"?>
<!DOCTYPE svg PUBLIC "-//W3C//DTD SVG 20010904//EN"
 "http://www.w3.org/TR/2001/REC-SVG-20010904/DTD/svg10.dtd">
<svg version="1.0" xmlns="http://www.w3.org/2000/svg"
 width="300.000000pt" height="169.000000pt" viewBox="0 0 300.000000 169.000000"
 preserveAspectRatio="xMidYMid meet">
<metadata>
Created by potrace 1.10, written by Peter Selinger 2001-2011
</metadata>
<g transform="translate(0.000000,169.000000) scale(0.100000,-0.100000)"
fill="#000000" stroke="none">
<path d="M1164 1421 c-171 -49 -306 -211 -335 -402 -10 -61 -16 -77 -33 -85
-15 -6 -23 -21 -27 -54 -3 -25 -7 -41 -7 -36 -1 5 -9 3 -17 -4 -20 -17 -22
-212 -2 -229 8 -6 17 -8 20 -4 4 3 7 -12 7 -33 0 -43 14 -64 41 -64 12 0 19
-12 23 -45 9 -57 64 -168 113 -224 49 -58 143 -118 216 -138 31 -9 57 -20 57
-25 0 -18 42 -48 68 -48 63 0 87 89 35 129 -29 24 -58 20 -84 -10 -16 -17 -20
-18 -67 -4 -68 20 -165 87 -207 142 -65 85 -114 220 -86 237 7 5 11 71 11 206
0 173 -2 199 -16 204 -13 5 -15 15 -10 54 26 182 138 329 293 384 47 16 76 19
149 16 79 -3 100 -8 157 -37 71 -36 167 -122 114 -102 -48 19 -244 13 -298 -7
-15 -6 -30 -8 -33 -5 -3 4 -6 2 -6 -4 0 -10 -41 -29 -64 -31 -5 0 -12 -4 -15
-9 -3 -5 -23 -19 -43 -32 -65 -39 -145 -137 -173 -211 -22 -58 -26 -83 -24
-162 1 -51 7 -108 15 -126 7 -18 13 -35 13 -37 1 -10 33 -67 47 -83 8 -9 29
-33 46 -52 17 -19 34 -35 38 -35 5 0 22 -12 39 -28 17 -15 31 -24 31 -21 0 4
8 0 18 -8 9 -8 45 -25 79 -37 64 -24 71 -32 71 -88 1 -18 8 -43 16 -55 9 -12
16 -17 16 -10 0 6 4 12 9 12 6 0 31 14 56 31 25 17 52 28 61 25 8 -3 12 -2 9
4 -5 8 48 43 70 46 6 0 17 4 26 8 9 4 20 6 25 5 8 -1 12 -1 32 6 4 2 17 6 30
10 12 4 22 12 22 17 0 6 9 8 20 5 13 -3 18 -1 13 6 -4 7 0 8 11 4 11 -5 15 -3
10 5 -5 8 -2 9 10 5 10 -4 15 -3 11 3 -3 5 3 14 14 19 26 14 31 14 31 -3 0 -8
9 -18 20 -21 11 -3 20 -10 20 -15 0 -4 8 -7 18 -5 9 1 25 -1 34 -6 9 -5 18 -5
20 0 4 13 103 -21 140 -49 39 -29 77 -35 85 -15 3 9 12 14 19 11 10 -4 14 3
14 23 0 16 -5 31 -10 33 -6 2 -1 13 10 26 12 12 25 20 31 17 5 -4 9 -1 9 5 0
7 7 9 17 6 10 -4 14 -4 11 -1 -4 4 26 29 65 55 142 95 213 241 187 380 -6 30
-14 56 -18 59 -4 4 -7 12 -8 19 -2 29 -5 33 -16 26 -7 -4 -8 -3 -4 5 8 12 -32
76 -42 67 -8 -9 -31 14 -27 27 7 18 -75 75 -157 109 -62 27 -89 32 -180 36
-70 3 -105 8 -101 15 3 6 1 7 -6 3 -6 -4 -23 -9 -36 -12 -14 -2 -37 -6 -51 -9
-29 -5 -40 -12 -32 -21 3 -3 32 -1 64 5 183 34 355 -18 472 -143 103 -111 132
-246 81 -381 -33 -89 -138 -191 -237 -231 l-74 -29 6 -53 6 -53 -47 28 c-27
15 -61 35 -78 45 -16 10 -42 18 -56 18 -48 0 -138 22 -143 36 -3 8 0 11 8 8
19 -7 130 117 160 179 82 174 44 360 -104 501 -54 51 -175 121 -198 114 -4 -2
-35 26 -69 63 -123 131 -283 178 -449 130z m471 -203 c210 -60 355 -232 355
-423 0 -198 -164 -383 -386 -435 -28 -6 -97 -38 -154 -71 -56 -32 -103 -59
-106 -59 -2 0 -4 29 -4 64 l0 64 -35 6 c-19 4 -70 24 -113 46 -179 90 -285
275 -254 443 17 91 62 175 130 239 146 140 357 187 567 126z m-777 -300 c17
-17 17 -369 0 -386 -20 -20 -73 18 -63 46 3 8 -4 25 -15 39 -28 36 -29 178 -2
214 10 13 17 36 17 51 -1 15 1 25 3 23 3 -2 11 2 19 10 18 18 25 19 41 3z
m465 -804 c3 -15 -3 -34 -13 -47 l-18 -22 -29 21 c-37 28 -39 46 -7 65 34 21
61 14 67 -17z"/>
<path d="M1390 1180 c-310 -64 -420 -449 -191 -663 196 -184 513 -118 622 128
33 75 38 203 10 276 -44 117 -123 199 -230 239 -60 23 -152 32 -211 20z m152
-26 c22 -4 35 -11 31 -17 -3 -6 -1 -7 5 -3 30 18 146 -71 195 -149 33 -51 60
-167 52 -220 -22 -145 -91 -240 -215 -298 -48 -22 -66 -25 -150 -23 -107 2
-174 27 -241 88 -51 47 -102 133 -97 163 3 13 1 22 -3 19 -15 -9 -22 69 -10
125 6 31 12 65 14 77 6 33 87 164 87 139 0 -3 10 5 23 18 62 67 190 100 309
81z"/>
<path d="M1443 1117 c-2 -4 -8 -5 -12 -3 -4 3 -17 -13 -29 -35 -12 -22 -18
-37 -13 -35 9 6 28 -34 33 -69 3 -17 -3 -20 -37 -22 -126 -8 -165 -15 -165
-29 0 -9 -5 -12 -12 -8 -6 4 -8 3 -5 -3 4 -6 0 -16 -8 -23 -17 -14 -21 -116
-5 -122 6 -2 13 -14 16 -28 3 -14 8 -35 11 -47 3 -12 0 -36 -5 -53 -6 -17 -7
-28 -2 -25 4 3 10 0 12 -6 2 -6 34 -12 71 -13 75 -4 74 -3 79 -31 5 -33 30
-44 95 -45 59 0 61 1 72 30 5 17 7 30 3 30 -4 0 0 5 8 10 8 5 42 10 76 10 48
0 65 4 79 20 10 11 13 20 7 20 -20 0 -10 103 12 119 15 12 17 22 12 70 -9 82
-9 81 -13 77 -2 -2 -14 6 -26 18 -19 19 -33 21 -110 21 -82 0 -88 1 -93 22 -4
15 3 34 23 59 15 21 22 35 16 30 -9 -5 -13 -1 -13 12 0 11 -7 25 -15 32 -8 7
-13 15 -11 19 2 3 -7 6 -21 6 -14 0 -27 -3 -30 -8z m45 -23 c25 -18 29 -46 7
-64 -9 -8 -15 -30 -15 -59 l0 -46 105 3 105 3 0 -24 c0 -14 7 -27 15 -31 23
-8 21 -96 -2 -102 -16 -4 -18 -16 -15 -84 l4 -80 -81 0 -81 0 0 -35 0 -35 -70
0 -70 0 0 35 0 35 -80 0 -80 0 0 79 c0 61 -3 80 -15 85 -10 4 -15 20 -15 51 0
31 5 47 15 51 8 4 15 17 15 31 l0 24 105 -3 105 -3 0 46 c0 29 -6 51 -15 59
-22 18 -18 46 7 64 12 9 25 16 28 16 3 0 16 -7 28 -16z"/>
<path d="M1430 1067 c0 -8 7 -14 15 -14 11 0 12 4 4 14 -6 7 -13 13 -15 13 -2
0 -4 -6 -4 -13z"/>
<path d="M1460 815 c0 -60 2 -106 4 -104 7 7 9 199 2 206 -3 3 -6 -42 -6 -102z"/>
<path d="M1673 825 c0 -22 2 -30 4 -17 2 12 2 30 0 40 -3 9 -5 -1 -4 -23z"/>
<path d="M1324 835 c-9 -23 3 -45 24 -45 28 0 43 20 31 42 -12 22 -47 24 -55
3z m46 -13 c0 -14 -11 -21 -26 -15 -8 3 -11 9 -8 14 7 11 34 12 34 1z"/>
<path d="M1540 835 c-10 -12 -10 -18 0 -30 20 -25 55 -15 55 15 0 30 -35 40
-55 15z m41 -20 c-1 -15 -24 -12 -29 3 -3 9 2 13 12 10 10 -1 17 -7 17 -13z"/>
<path d="M1380 675 c9 -11 32 -15 80 -15 48 0 71 4 80 15 11 13 1 15 -80 15
-81 0 -91 -2 -80 -15z m133 -2 c-7 -2 -21 -2 -30 0 -10 3 -4 5 12 5 17 0 24
-2 18 -5z"/>
<path d="M1463 595 c0 -27 2 -38 4 -22 2 15 2 37 0 50 -2 12 -4 0 -4 -28z"/>
<path d="M2395 1050 c3 -5 8 -10 11 -10 2 0 4 5 4 10 0 6 -5 10 -11 10 -5 0
-7 -4 -4 -10z"/>
</g>
</svg>
