<?xml version="1.0" standalone="no"?>
<!DOCTYPE svg PUBLIC "-//W3C//DTD SVG 20010904//EN"
 "http://www.w3.org/TR/2001/REC-SVG-20010904/DTD/svg10.dtd">
<svg version="1.0" xmlns="http://www.w3.org/2000/svg"
 width="180.000000pt" height="170.000000pt" viewBox="0 0 180.000000 170.000000"
 preserveAspectRatio="xMidYMid meet">
<metadata>
Created by potrace 1.10, written by Peter Selinger 2001-2011
</metadata>
<g transform="translate(0.000000,170.000000) scale(0.100000,-0.100000)"
fill="#000000" stroke="none">
<path d="M809 1636 c-2 -2 -20 -7 -39 -10 -88 -14 -108 -20 -187 -57 -92 -42
-202 -119 -256 -180 -72 -83 -97 -113 -97 -122 0 -4 -9 -20 -20 -35 -27 -37
-73 -170 -86 -247 -3 -16 -7 -35 -9 -42 -2 -7 0 -15 5 -18 6 -4 10 7 10 23 0
17 12 70 26 118 97 337 389 556 744 557 126 0 160 -5 267 -42 137 -47 237
-119 363 -261 23 -26 28 -29 19 -11 -16 34 -135 150 -189 187 -140 94 -261
133 -431 140 -63 2 -117 3 -120 0z"/>
<path d="M625 1381 c-124 -32 -210 -130 -222 -254 -8 -88 51 -345 88 -382 7
-7 7 -1 0 18 -25 65 -8 45 47 -53 76 -136 100 -199 82 -210 -11 -7 -11 -23 -2
-92 12 -83 17 -113 27 -156 3 -12 7 -32 10 -45 2 -12 7 -35 11 -50 3 -16 8
-26 11 -24 2 3 -3 42 -11 87 -9 45 -16 106 -16 134 l0 52 78 56 c92 67 113 88
116 122 3 25 2 26 -18 11 -11 -9 -36 -22 -55 -31 -33 -15 -35 -14 -82 15 -54
33 -61 33 -26 1 41 -40 72 -51 106 -39 17 6 31 15 31 20 0 5 5 9 10 9 26 0 3
-25 -79 -85 -49 -36 -92 -71 -94 -78 -2 -6 -8 5 -12 26 -5 28 -3 44 10 63 10
16 13 29 7 33 -5 3 -13 28 -17 56 -4 33 -19 66 -45 103 -21 29 -42 66 -45 82
-5 25 -33 45 -57 41 -5 -1 -8 10 -8 22 0 13 -9 52 -21 87 -15 46 -17 65 -9 70
7 4 13 40 15 86 4 120 37 181 121 230 38 22 61 28 138 32 129 6 195 -13 257
-77 56 -58 68 -101 70 -246 2 -110 -2 -135 -28 -174 l-17 -26 -6 30 c-3 17 -2
50 3 75 16 84 20 202 8 242 -15 50 -66 107 -116 129 -47 22 -195 26 -260 8
-52 -15 -119 -82 -134 -134 -16 -57 -14 -156 4 -200 10 -23 15 -56 12 -91 -3
-37 0 -53 7 -51 6 2 10 22 8 48 -5 81 51 136 210 206 87 38 169 91 191 124 12
17 16 10 42 -67 28 -84 28 -89 17 -173 -6 -47 -13 -95 -15 -106 -3 -11 0 -26
6 -33 8 -10 8 -16 0 -20 -6 -4 -13 -16 -17 -28 -13 -43 -49 -65 -115 -68 -73
-4 -100 -21 -82 -55 14 -24 43 -26 86 -6 l30 15 -42 -6 c-50 -7 -69 1 -52 22
7 9 30 14 61 14 29 0 59 7 76 18 24 15 23 12 -11 -29 -32 -40 -37 -53 -36 -95
l0 -49 13 35 c20 54 66 141 92 176 13 17 24 36 24 42 0 6 9 19 20 30 35 33 65
151 42 166 -5 3 -7 54 -4 115 4 98 2 114 -18 156 -30 62 -84 98 -142 94 -26
-1 -59 5 -83 16 -44 20 -143 29 -190 16z m48 -28 c-7 -2 -21 -2 -30 0 -10 3
-4 5 12 5 17 0 24 -2 18 -5z m-56 -9 c-3 -3 -12 -4 -19 -1 -8 3 -5 6 6 6 11 1
17 -2 13 -5z m274 -74 c28 -15 37 -25 32 -34 -14 -24 -97 -88 -133 -103 -95
-39 -199 -96 -235 -129 l-40 -36 -6 32 c-9 44 -1 168 13 194 15 28 34 46 42
39 3 -4 6 -1 6 5 0 7 15 21 33 32 47 29 230 29 288 0z m-444 -92 c-3 -8 -6 -5
-6 6 -1 11 2 17 5 13 3 -3 4 -12 1 -19z"/>
<path d="M1197 1242 c-14 -16 -17 -45 -17 -193 l-1 -174 -39 -74 c-22 -41 -38
-76 -37 -77 1 -1 36 18 77 42 l75 44 257 0 c254 0 257 0 272 22 22 30 20 45
-2 25 -15 -14 -55 -17 -272 -20 -239 -3 -258 -5 -297 -25 -55 -29 -57 -28 -37
11 9 17 21 40 25 49 5 10 9 94 9 188 0 129 3 170 13 170 6 0 127 2 269 4 209
4 260 2 275 -9 10 -8 21 -15 25 -15 10 0 -3 33 -16 42 -6 4 -135 8 -287 8
-255 0 -277 -1 -292 -18z"/>
<path d="M1336 1079 c-33 -26 -33 -53 -1 -85 22 -21 28 -23 47 -13 53 28 60
61 21 95 -34 29 -34 29 -67 3z m63 -28 c13 -24 -8 -55 -34 -50 -28 6 -42 34
-26 53 18 22 48 20 60 -3z"/>
<path d="M1463 1083 c-16 -11 -23 -26 -23 -48 0 -61 69 -80 99 -27 9 16 11 15
31 -5 49 -53 128 -2 92 59 -28 47 -86 41 -99 -11 l-6 -24 -14 26 c-11 22 -43
49 -55 46 -2 0 -13 -7 -25 -16z m58 -29 c9 -11 10 -20 2 -32 -15 -24 -44 -27
-59 -7 -28 38 27 75 57 39z m123 -6 c8 -14 7 -21 -6 -34 -22 -22 -58 -10 -58
21 0 37 43 46 64 13z"/>
<path d="M114 895 c-6 -15 1 -139 11 -190 11 -56 17 -40 8 25 -4 36 -8 91 -8
123 0 60 -2 67 -11 42z"/>
<path d="M1680 750 c0 -16 2 -30 4 -30 2 0 6 14 8 30 3 17 1 30 -4 30 -4 0 -8
-13 -8 -30z"/>
<path d="M1670 690 c0 -11 2 -20 4 -20 2 0 6 9 9 20 3 11 1 20 -4 20 -5 0 -9
-9 -9 -20z"/>
<path d="M150 610 c48 -125 123 -260 136 -247 3 3 -13 31 -35 62 -22 32 -55
94 -72 139 -17 44 -35 86 -41 91 -5 6 0 -15 12 -45z"/>
<path d="M1661 644 c0 -11 3 -14 6 -6 3 7 2 16 -1 19 -3 4 -6 -2 -5 -13z"/>
<path d="M1608 522 c-55 -116 -136 -215 -235 -292 -80 -61 -91 -80 -16 -29 52
36 141 122 185 179 46 59 134 242 116 240 -2 -1 -24 -44 -50 -98z"/>
<path d="M870 502 c1 -4 7 -18 15 -32 l14 -25 1 26 c0 15 -7 29 -15 33 -8 3
-15 2 -15 -2z"/>
<path d="M547 439 c-21 -15 -44 -30 -50 -32 -7 -2 -9 -7 -5 -11 7 -8 82 36 93
54 13 21 0 17 -38 -11z"/>
<path d="M912 458 c6 -16 98 -71 98 -58 0 5 -13 16 -28 24 -16 8 -34 22 -41
30 -16 19 -34 21 -29 4z"/>
<path d="M405 380 c-59 -6 -105 -23 -105 -38 0 -11 64 -71 129 -121 211 -164
532 -202 787 -95 l62 26 -5 62 c-3 33 -13 77 -22 96 -22 48 -87 80 -161 80
-53 -1 -58 -3 -114 -55 -33 -30 -55 -55 -50 -56 15 -1 41 -7 62 -13 20 -7 20
-8 -9 -79 -46 -111 -51 -118 -68 -111 -9 4 -41 8 -71 9 -30 1 -55 3 -55 4 0 2
-20 5 -45 7 -25 3 -47 9 -50 12 -3 4 -14 9 -25 10 -11 2 -22 7 -25 10 -3 4
-25 14 -49 22 -36 12 -50 24 -72 62 l-28 47 37 11 c20 5 43 10 50 10 7 0 -11
21 -40 47 -29 25 -54 50 -56 55 -2 4 -7 7 -10 7 -4 -1 -34 -5 -67 -9z m773
-31 c40 -13 58 -47 65 -122 l5 -58 -36 -16 c-21 -8 -45 -20 -55 -25 -10 -5
-22 -6 -27 -3 -4 3 -10 0 -12 -5 -4 -12 -145 -36 -155 -27 -3 3 4 26 16 50 11
24 21 49 21 55 0 7 5 12 10 12 11 0 14 60 3 60 -5 0 -17 7 -27 15 -19 15 -18
16 19 51 38 34 42 36 90 30 27 -4 65 -11 83 -17z m-698 3 c0 -4 14 -16 30 -25
29 -18 40 -37 20 -37 -15 0 -50 -33 -50 -46 0 -7 6 -14 13 -17 6 -2 9 -8 5
-12 -9 -9 -76 35 -129 85 -33 31 -36 37 -21 46 19 12 132 17 132 6z"/>
</g>
</svg>
