<?xml version="1.0" standalone="no"?>
<!DOCTYPE svg PUBLIC "-//W3C//DTD SVG 20010904//EN"
 "http://www.w3.org/TR/2001/REC-SVG-20010904/DTD/svg10.dtd">
<svg version="1.0" xmlns="http://www.w3.org/2000/svg"
 width="200.000000pt" height="200.000000pt" viewBox="0 0 200.000000 200.000000"
 preserveAspectRatio="xMidYMid meet">
<metadata>
Created by potrace 1.10, written by Peter Selinger 2001-2011
</metadata>
<g transform="translate(0.000000,200.000000) scale(0.100000,-0.100000)"
fill="#000000" stroke="none">
<path d="M1450 1989 c-25 -5 -97 -27 -160 -49 -63 -23 -153 -54 -200 -70 -47
-16 -164 -56 -260 -90 -96 -34 -193 -68 -215 -75 -91 -30 -324 -114 -342 -123
-36 -20 -81 -78 -94 -120 -14 -49 -11 -69 61 -447 11 -55 29 -152 40 -215 12
-63 27 -146 35 -185 7 -38 21 -110 31 -160 20 -107 32 -132 78 -173 69 -60
108 -61 492 -14 l61 8 7 -109 c8 -128 16 -152 50 -161 39 -10 63 5 175 106 58
51 136 120 174 154 l70 61 97 7 c52 3 118 12 146 21 100 30 154 128 135 247
-5 30 -12 86 -16 124 -3 38 -12 116 -20 174 -8 58 -16 133 -19 168 -3 34 -12
115 -20 180 -8 64 -22 178 -31 252 -49 417 -46 406 -115 460 -39 31 -92 40
-160 29z m98 -23 c61 -31 92 -65 102 -113 5 -21 18 -119 30 -218 11 -99 22
-196 25 -215 4 -30 13 -116 30 -265 10 -90 35 -294 44 -360 6 -38 13 -124 17
-190 5 -109 4 -123 -15 -152 -38 -60 -86 -78 -246 -89 -86 -6 -102 -14 -190
-95 -140 -128 -282 -249 -292 -249 -22 0 -32 36 -39 141 -4 71 -11 110 -22
122 -8 9 -13 18 -11 20 2 2 23 15 47 30 37 24 42 25 43 10 2 -84 13 -140 30
-157 18 -20 19 -20 41 0 54 48 205 181 228 202 13 12 28 23 32 23 5 1 11 2 16
4 45 12 137 22 214 24 27 1 45 9 67 32 44 43 44 39 -19 569 -11 91 -31 262
-45 380 -14 118 -29 256 -35 305 -6 50 -13 99 -16 110 -11 34 -46 65 -75 65
-27 0 -332 -100 -634 -208 -77 -28 -232 -82 -345 -121 -170 -59 -210 -76 -234
-102 -34 -38 -33 -42 13 -284 49 -259 100 -531 126 -670 22 -119 27 -132 56
-159 31 -27 34 -28 113 -22 44 4 119 11 166 16 188 22 168 24 179 -13 9 -31 9
-31 10 16 l1 48 -42 -5 c-24 -3 -121 -13 -215 -22 -206 -21 -203 -22 -227 89
-20 91 -46 227 -57 292 -4 28 -18 100 -29 160 -80 417 -94 500 -87 518 10 26
48 45 168 86 63 22 186 65 274 96 88 31 198 70 245 85 47 16 164 57 260 90
280 97 259 92 285 66 24 -24 23 -20 65 -391 11 -99 27 -232 35 -295 8 -63 17
-144 20 -180 3 -36 10 -92 15 -125 5 -33 12 -89 15 -125 3 -36 10 -95 15 -132
11 -73 3 -111 -27 -126 -10 -5 -74 -15 -143 -22 -68 -6 -130 -15 -136 -18 -11
-6 -238 -208 -269 -238 -10 -10 -14 -1 -19 48 -3 34 -6 76 -6 94 0 18 -4 36
-10 39 -5 3 -38 -14 -73 -39 l-64 -45 -203 -20 c-238 -24 -270 -20 -323 38
-27 30 -36 52 -50 126 -124 656 -177 943 -177 967 0 80 57 138 177 179 43 15
287 100 543 189 256 89 485 169 510 177 25 9 49 20 55 24 12 12 9 12 63 -15z"/>
<path d="M1405 1633 c-11 -2 -49 -10 -85 -18 -78 -16 -246 -50 -355 -71 -44
-9 -118 -24 -165 -34 -47 -10 -128 -27 -180 -36 -81 -16 -100 -23 -128 -50
-22 -22 -32 -41 -32 -62 0 -67 30 -691 35 -732 9 -69 13 -77 49 -100 29 -17
50 -20 167 -20 74 0 157 -3 186 -6 l52 -7 3 -45 c2 -25 9 -47 16 -50 9 -3 11
9 8 44 -6 75 -23 84 -170 85 -131 1 -197 5 -233 14 -47 11 -52 36 -64 291 -5
131 -13 306 -17 388 -6 131 -5 152 10 177 10 16 19 29 20 29 2 0 71 14 153 31
83 17 182 37 220 44 39 8 81 16 95 19 14 4 54 11 89 17 36 5 67 12 71 14 4 2
21 7 38 10 18 3 77 14 133 25 129 26 139 25 166 -7 22 -25 23 -33 19 -127 -3
-56 -8 -276 -12 -491 -7 -426 -8 -438 -65 -450 -15 -4 -65 -5 -111 -3 -78 2
-86 1 -138 -29 -30 -18 -68 -44 -85 -57 -52 -44 -3 -30 71 19 l67 45 108 0
c98 0 110 2 134 22 38 33 42 86 50 607 l7 453 -33 34 c-31 32 -48 37 -94 27z"/>
<path d="M1193 1130 c-28 -17 -33 -25 -33 -58 0 -70 74 -100 125 -52 35 33 33
72 -6 104 -37 31 -45 32 -86 6z m83 -35 c15 -23 15 -27 0 -50 -28 -43 -96 -26
-96 23 0 35 17 52 52 52 18 0 33 -8 44 -25z"/>
<path d="M967 1095 c-34 -32 -35 -68 -2 -100 31 -32 74 -33 103 -2 29 31 28
72 -3 102 -31 32 -63 32 -98 0z m81 -11 c40 -28 16 -94 -34 -94 -48 0 -65 66
-25 97 21 16 32 16 59 -3z"/>
<path d="M752 1067 c-12 -13 -22 -36 -22 -51 0 -31 40 -76 67 -76 19 0 62 26
75 44 15 21 7 57 -17 81 -31 32 -74 33 -103 2z m94 -22 c33 -50 -20 -104 -71
-71 -29 19 -32 51 -8 78 23 26 59 23 79 -7z"/>
</g>
</svg>
